<?xml version="1.0" encoding="UTF-8" standalone="no"?>
<svg
   height="15.207558"
   viewBox="0 -960 767.99854 729.96276"
   width="15.999969"
   fill="#f19e39"
   version="1.1"
   id="svg1"
   xml:space="preserve"
   xmlns="http://www.w3.org/2000/svg"
   xmlns:svg="http://www.w3.org/2000/svg"><defs
     id="defs1" /><g
     id="layer3"
     transform="translate(-10999.735,-1712.0781)"><g
       id="g24-3-6-3"
       transform="translate(10981.735,842.85129)"
       style="fill:#ff85f5;fill-opacity:1"><path
         d="m 458.65851,636.57896 q -38.96909,0 -66.24745,-27.27837 -27.2785,-27.27837 -27.2785,-66.24748 0,-37.02065 25.32991,-64.05546 25.33004,-27.03481 61.86346,-29.47038 11.20365,-41.40467 45.05807,-67.46525 33.8544,-26.0606 78.18178,-26.0606 50.17273,0 87.19338,33.85441 37.02063,33.8544 41.40462,83.05289 34.09802,0 57.96655,23.86857 23.86867,23.86859 23.86867,57.96654 0,34.09799 -23.86867,57.96655 -23.86853,23.86858 -57.96655,23.86858 z"
         id="path1-9-9-3"
         style="fill:#ff85f5;fill-opacity:1;stroke-width:0.487115" /><path
         d="m 11345.336,828.87809 -227.52,131.52 227.52,131.52001 227.52,-131.52001 z m -345.6,459.84001 V 983.43809 c 0,-14.08 3.36,-26.88 10.08,-38.4 6.72,-11.52 16.16,-20.8 28.32,-27.84 l 268.8,-154.56 c 6.4,-3.2 12.64,-5.76 18.72,-7.68 6.08,-1.92 12.64,-2.88 19.68,-2.88 7.04,0 13.76,0.96 20.16,2.88 6.4,1.92 12.48,4.48 18.24,7.68 l 268.8,154.56 c 12.16,7.04 21.6,16.32 28.32,27.84 6.72,11.52 10.08,24.32 10.08,38.4 v 114.24001 c 0,10.88 -3.68,20 -11.04,27.36 -7.36,7.36 -16.48,11.04 -27.36,11.04 -10.88,0 -20,-3.68 -27.36,-11.04 -7.36,-7.36 -11.04,-16.48 -11.04,-27.36 v -72.96 l -231.36,133.44 c -12.16,7.04 -24.96,10.56 -38.4,10.56 -13.44,0 -26.24,-3.52 -38.4,-10.56 l -229.44,-133.44 v 263.04 l 211.2,122.8801 c 5.76,3.2 10.4,7.68 13.92,13.44 3.52,5.76 5.28,12.16 5.28,19.2 0,14.72 -6.4,25.76 -19.2,33.12 -12.8,7.36 -25.6,7.52 -38.4,0.48 l -211.2,-121.92 c -12.16,-7.04 -21.6,-16.32 -28.32,-27.84 -6.72,-11.52 -10.08,-24.32 -10.08,-38.4001 z"
         id="path1-76-0-98-1"
         style="display:inline;fill:#ff85f5;fill-opacity:1;stroke-width:0.96"
         transform="translate(-10981.735,-842.85129)" /></g></g></svg>
