<?xml version="1.0" encoding="UTF-8" standalone="no"?>
<svg
   height="17.599998"
   viewBox="0 -960 767.99817 844.79992"
   width="15.999962"
   fill="#f19e39"
   version="1.1"
   id="svg1"
   xml:space="preserve"
   xmlns="http://www.w3.org/2000/svg"
   xmlns:svg="http://www.w3.org/2000/svg"><defs
     id="defs1" /><g
     id="layer3"
     transform="translate(-951.73425,-1854.0341)"><g
       id="g24-3-5"
       transform="translate(933.73319,984.80719)"
       style="fill:#4ade80;fill-opacity:1"><path
         d="m 519.60173,738.90684 q -35.03967,-15.11999 -61.19943,-41.28 -26.15976,-26.15999 -41.27961,-61.19999 -15.11987,-35.03999 -15.11987,-74.64 0,-39.6 15.11987,-74.4 15.11985,-34.8 41.27961,-60.96 26.15976,-26.16 61.19943,-41.27999 35.03968,-15.12001 74.63932,-15.12001 39.59962,0 74.3993,15.12001 34.79969,15.11999 60.95944,41.27999 26.15977,26.16 41.27962,60.96 15.11987,34.8 15.11987,74.4 0,39.60001 -15.11987,74.64 -15.11985,35.04 -41.27962,61.19999 -26.15975,26.16001 -60.95944,41.28 -34.79968,15.12001 -74.3993,15.12001 -39.59964,0 -74.63932,-15.12001 z m 74.39932,-24.24 q 12.47988,-17.27999 21.59981,-35.99998 9.11991,-18.72002 14.87985,-39.84001 h -72.95932 q 5.75994,21.11999 14.87986,39.84001 9.11992,18.71999 21.5998,35.99998 z m -49.91954,-7.68 q -8.63993,-15.84 -15.11985,-32.87999 -6.47996,-17.04 -10.79991,-35.28 h -56.63947 q 13.91988,24 34.79967,41.76001 20.87982,17.75999 47.75956,26.39998 z m 99.83909,0 q 26.87974,-8.63999 47.75955,-26.39998 20.87979,-17.76001 34.79967,-41.76001 h -56.63948 q -4.31995,18.24 -10.7999,35.28 -6.47993,17.03999 -15.11984,32.87999 z M 445.20242,600.42685 h 65.27941 q -1.44,-9.60001 -2.15998,-18.95999 -0.72,-9.36001 -0.72,-19.44001 0,-10.08 0.72,-19.44001 0.71998,-9.35998 2.15998,-18.95999 h -65.27941 q -2.39996,9.60001 -3.59996,18.95999 -1.19998,9.36001 -1.19998,19.44001 0,10.08 1.19998,19.44001 1.2,9.35998 3.59996,18.95999 z m 103.67905,0 h 90.23916 q 1.43998,-9.60001 2.15999,-18.95999 0.71998,-9.36001 0.71998,-19.44001 0,-10.08 -0.71998,-19.44001 -0.72001,-9.35998 -2.15999,-18.95999 h -90.23916 q -1.43999,9.60001 -2.15999,18.95999 -0.71998,9.36001 -0.71998,19.44001 0,10.08 0.71998,19.44001 0.72,9.35998 2.15999,18.95999 z m 128.63881,0 h 65.2794 q 2.39997,-9.60001 3.59996,-18.95999 1.19999,-9.36001 1.19999,-19.44001 0,-10.08 -1.19999,-19.44001 -1.19999,-9.35998 -3.59996,-18.95999 h -65.2794 q 1.43999,9.60001 2.15996,18.95999 0.72001,9.36001 0.72001,19.44001 0,10.08 -0.72001,19.44001 -0.71997,9.35998 -2.15996,18.95999 z m -7.67994,-115.2 h 56.63948 q -13.91988,-23.99999 -34.79967,-41.75999 -20.87981,-17.76 -47.75955,-26.4 8.63991,15.83999 15.11984,32.87999 6.47995,17.03999 10.7999,35.28 z m -112.31895,0 h 72.95932 q -5.75994,-21.12 -14.87985,-39.84001 -9.11993,-18.72 -21.59981,-35.99998 -12.47988,17.27998 -21.5998,35.99998 -9.11992,18.72001 -14.87986,39.84001 z m -95.99911,0 h 56.63947 q 4.31995,-18.24001 10.79991,-35.28 6.47992,-17.04 15.11985,-32.87999 -26.87974,8.64 -47.75956,26.4 -20.87979,17.76 -34.79967,41.75999 z"
         id="path1-6-6-6"
         style="fill:#4ade80;fill-opacity:1;stroke-width:0.479998" /><path
         d="m 363.60104,-13.97315 -227.52,131.52 227.52,131.52 227.52,-131.52 z m -345.599995,459.84 v -305.28 c 0,-14.08 3.36,-26.88 10.08,-38.4 6.72,-11.52 16.1599,-20.8 28.32,-27.84 l 268.800005,-154.56 c 6.4,-3.2 12.64,-5.76 18.72,-7.68 6.07999,-1.92 12.63999,-2.88 19.67999,-2.88 7.04,0 13.76001,0.96 20.16,2.88 6.4,1.92 12.48,4.48 18.24,7.68 l 268.8,154.56 c 12.16,7.04 21.6,16.32 28.32,27.84 6.72,11.52 10.08,24.32 10.08,38.4 v 114.24 c 0,10.88 -3.68,20 -11.04,27.36 -7.3601,7.36 -16.4801,11.04 -27.36,11.04 -10.88,0 -20,-3.68 -27.36,-11.04 -7.36,-7.36 -11.04,-16.48 -11.04,-27.36 v -72.96 l -231.36,133.44 c -12.16,7.04 -24.96,10.56 -38.4,10.56 -13.44,0 -26.24,-3.52 -38.4,-10.56 l -229.439995,-133.44 v 263.04 L 306.00104,567.78686 c 5.76,3.2 10.4,7.68 13.92,13.44 3.52,5.76 5.28,12.16 5.28,19.2 0,14.72 -6.4,25.76 -19.2,33.12 -12.8,7.36 -25.6,7.52 -38.4,0.48 l -211.199995,-121.92 c -12.1601,-7.04 -21.6,-16.32 -28.32,-27.84 -6.72,-11.52 -10.08,-24.32 -10.08,-38.40001 z"
         id="path1-76-0"
         style="fill:#4ade80;fill-opacity:1;stroke-width:0.96" /></g></g></svg>
