<?xml version="1.0" encoding="UTF-8" standalone="no"?>
<svg
   height="17.777775"
   viewBox="0 -960 768 853.33319"
   width="16"
   fill="#f19e39"
   version="1.1"
   id="svg1"
   xml:space="preserve"
   xmlns="http://www.w3.org/2000/svg"
   xmlns:svg="http://www.w3.org/2000/svg"><defs
     id="defs1" /><g
     id="layer3"
     transform="translate(-25756.893,-1714.0269)"><path
       d="m 26098.225,1497.4934 v -292.2666 l -256,-148.2667 v 292.2667 z m 85.333,0 256,-148.2666 v -292.2667 l -256,148.2667 z m -42.666,-365.8666 252.8,-146.13335 -252.8,-146.1333 -252.8,146.1333 z m -341.333,292.2666 q -20.267,-11.7333 -31.467,-30.9333 -11.2,-19.2 -11.2,-42.6667 v -339.2 q 0,-23.46655 11.2,-42.66655 11.2,-19.2 31.467,-30.9334 l 298.666,-171.7333 q 20.267,-11.7333 42.667,-11.7333 22.4,0 42.666,11.7333 l 298.667,171.7333 q 20.267,11.7334 31.467,30.9334 11.2,19.2 11.2,42.66655 v 339.2 q 0,23.4667 -11.2,42.6667 -11.2,19.2 -31.467,30.9333 l -298.667,171.7333 q -20.266,11.7334 -42.666,11.7334 -22.4,0 -42.667,-11.7334 z m 341.333,-243.2 z"
       id="path1-82-2-0"
       style="fill:#94a3b8;fill-opacity:1;stroke-width:1.06667" /></g></svg>
