<?xml version="1.0" encoding="UTF-8" standalone="no"?>
<svg
   height="17.254112"
   viewBox="0 -960 699.71521 828.19738"
   width="14.5774"
   fill="#f19e39"
   version="1.1"
   id="svg1"
   xml:space="preserve"
   xmlns="http://www.w3.org/2000/svg"
   xmlns:svg="http://www.w3.org/2000/svg"><defs
     id="defs1" /><g
     id="layer3"
     transform="translate(-4847.2202,-1852.7221)"><g
       id="g24-3-2-2"
       transform="translate(4829.219,983.49529)"
       style="fill:#4ade80;fill-opacity:1"><path
         d="m 665.09702,737.42415 q -21.92468,0 -37.27196,-15.34728 -15.34726,-15.34726 -15.34726,-37.27193 0,-2.63095 1.31548,-12.27782 l -123.21664,-71.9129 q -7.01588,6.57739 -16.22425,10.3046 -9.20834,3.72718 -19.7322,3.72718 -21.92466,0 -37.27194,-15.34727 -15.34725,-15.34725 -15.34725,-37.27192 0,-21.92467 15.34725,-37.27195 15.34728,-15.34725 37.27194,-15.34725 10.52386,0 19.7322,3.72718 9.20837,3.72721 16.22425,10.30461 l 123.21664,-71.91293 q -0.87698,-3.06944 -1.09623,-5.91965 -0.21925,-2.85021 -0.21925,-6.35815 0,-21.92468 15.34726,-37.27195 15.34728,-15.34726 37.27196,-15.34726 21.92469,0 37.27188,15.34726 15.34728,15.34727 15.34728,37.27195 0,21.92468 -15.34728,37.27193 -15.34719,15.34727 -37.27188,15.34727 -10.52386,0 -19.73223,-3.72719 -9.20834,-3.72721 -16.22423,-10.30459 l -123.21664,71.91289 q 0.87699,3.06946 1.09622,5.91967 0.21926,2.85021 0.21926,6.35816 0,3.50794 -0.21926,6.35815 -0.21923,2.85021 -1.09622,5.91965 l 123.21664,71.91293 q 7.01589,-6.57741 16.22423,-10.30461 9.20837,-3.72718 19.73223,-3.72718 21.92469,0 37.27188,15.34726 15.34728,15.34727 15.34728,37.27193 0,21.92467 -15.34728,37.27193 -15.34719,15.34728 -37.27188,15.34728 z m 0,-35.07947 q 7.45434,0 12.49707,-5.04268 5.04263,-5.04267 5.04263,-12.49706 0,-7.45439 -5.04263,-12.49706 -5.04273,-5.04267 -12.49707,-5.04267 -7.4544,0 -12.49708,5.04267 -5.04267,5.04267 -5.04267,12.49706 0,7.45439 5.04267,12.49706 5.04268,5.04268 12.49708,5.04268 z M 454.62019,579.56653 q 7.45439,0 12.49706,-5.04267 5.04269,-5.04267 5.04269,-12.49705 0,-7.45439 -5.04269,-12.49706 -5.04267,-5.04268 -12.49706,-5.04268 -7.45437,0 -12.49705,5.04268 -5.04269,5.04267 -5.04269,12.49706 0,7.45438 5.04269,12.49705 5.04268,5.04267 12.49705,5.04267 z m 222.9739,-127.8208 q 5.04263,-5.04268 5.04263,-12.49706 0,-7.45438 -5.04263,-12.49706 -5.04273,-5.04268 -12.49707,-5.04268 -7.4544,0 -12.49708,5.04268 -5.04267,5.04268 -5.04267,12.49706 0,7.45438 5.04267,12.49706 5.04268,5.04267 12.49708,5.04267 7.45434,0 12.49707,-5.04267 z M 665.09702,684.80494 Z M 454.62019,562.02681 Z M 665.09702,439.24867 Z"
         id="path1-79-7-5"
         style="fill:#4ade80;fill-opacity:1;stroke-width:0.438493" /><path
         d="m 363.60105,-13.973205 -227.52,131.519995 227.52,131.52001 227.52,-131.52001 z m -345.6,459.839995 v -305.28 c 0,-14.08 3.36,-26.88 10.08,-38.4 6.72,-11.52 16.1599,-20.799995 28.32,-27.839995 l 268.8,-154.559995 c 6.4,-3.2 12.64,-5.76 18.7201,-7.68 6.0799,-1.92 12.6399,-2.88 19.6799,-2.88 7.04,0 13.76,0.96 20.16,2.88 6.4,1.92 12.48,4.48 18.24,7.68 l 268.8,154.559995 c 12.16,7.04 21.6,16.319995 28.32,27.839995 6.72,11.52 10.08,24.32 10.08,38.4 V 254.8268 c 0,10.88 -3.68,20 -11.04,27.36 -7.3601,7.36 -16.4801,11.04 -27.36,11.04 -10.88,0 -20,-3.68 -27.36,-11.04 -7.36,-7.36 -11.04,-16.48 -11.04,-27.36 v -72.96 l -231.36,133.44 c -12.16,7.04 -24.96,10.56 -38.4,10.56 -13.44,0 -26.24,-3.52 -38.4,-10.56 l -229.44,-133.44 v 263.04 l 211.2,122.88001 c 5.76,3.2 10.4,7.67999 13.92,13.44 3.52,5.76 5.28,12.16 5.28,19.2 0,14.72 -6.4,25.76 -19.2,33.12 -12.8,7.36 -25.6,7.52 -38.4,0.48 l -211.2,-121.92 c -12.1601,-7.04 -21.6,-16.32 -28.32,-27.84 -6.72,-11.52 -10.08,-24.32 -10.08,-38.40002 z"
         id="path1-76-0-6"
         style="fill:#4ade80;fill-opacity:1;stroke-width:0.96" /></g></g></svg>
