<?xml version="1.0" encoding="UTF-8" standalone="no"?>
<svg
   height="17.57267"
   viewBox="0 -960 734.79639 843.48815"
   width="15.308258"
   fill="#f19e39"
   version="1.1"
   id="svg1"
   xml:space="preserve"
   xmlns="http://www.w3.org/2000/svg"
   xmlns:svg="http://www.w3.org/2000/svg"><defs
     id="defs1" /><g
     id="layer3"
     transform="translate(-15959.376,-1715.3387)"><g
       id="g24-7-3-5"
       transform="translate(15941.375,846.11193)"
       style="fill:#47b1b9;fill-opacity:1"><path
         d="m 507.56858,675.80823 q 7.57823,0 12.80938,-5.49564 5.23114,-5.49562 5.23114,-13.61889 0,-8.12327 -5.12696,-13.73106 -5.12581,-5.60778 -12.70404,-5.60778 -7.57709,0 -12.80938,5.49564 -5.23114,5.49562 -5.23114,13.61889 0,8.12327 5.12696,13.73106 5.12695,5.60778 12.70404,5.60778 z m 0,-83.31562 q 7.57823,0 12.80938,-5.49562 5.23114,-5.49563 5.23114,-13.61892 0,-8.12324 -5.12696,-13.73102 -5.12581,-5.60779 -12.70404,-5.60779 -7.57709,0 -12.80938,5.49561 -5.23114,5.49564 -5.23114,13.6189 0,8.12327 5.12696,13.73105 5.12695,5.60779 12.70404,5.60779 z m 0,-83.3156 q 7.57823,0 12.80938,-5.49565 5.23114,-5.49561 5.23114,-13.61888 0,-8.12328 -5.12696,-13.73106 -5.12581,-5.60779 -12.70404,-5.60779 -7.57709,0 -12.80938,5.49562 -5.23114,5.49562 -5.23114,13.61891 0,8.12327 5.12696,13.73105 5.12695,5.60779 12.70404,5.6078 z m 71.84837,166.63122 h 83.69945 q 7.62289,0 12.78076,-5.49564 5.15557,-5.49562 5.15557,-13.61889 0,-8.12327 -5.15557,-13.73106 -5.15787,-5.60778 -12.78076,-5.60778 h -83.69945 q -7.62288,0 -12.77961,5.49564 -5.15557,5.49562 -5.15557,13.61889 0,8.12327 5.15557,13.73106 5.15673,5.60778 12.77961,5.60778 z m 0,-83.31562 h 83.69945 q 7.62289,0 12.78076,-5.49562 5.15557,-5.49563 5.15557,-13.61892 0,-8.12324 -5.15557,-13.73102 -5.15787,-5.60779 -12.78076,-5.60779 h -83.69945 q -7.62288,0 -12.77961,5.49561 -5.15557,5.49564 -5.15557,13.6189 0,8.12327 5.15557,13.73105 5.15673,5.60779 12.77961,5.60779 z m 0,-83.3156 h 83.69945 q 7.62289,0 12.78076,-5.49565 5.15557,-5.49561 5.15557,-13.61888 0,-8.12328 -5.15557,-13.73106 -5.15787,-5.60779 -12.78076,-5.60779 h -83.69945 q -7.62288,0 -12.77961,5.49562 -5.15557,5.49562 -5.15557,13.61891 0,8.12327 5.15557,13.73105 5.15673,5.60779 12.77961,5.6078 z M 453.86606,752.71495 q -14.79696,0 -25.33481,-11.29568 -10.53671,-11.29566 -10.53671,-27.15767 V 432.27028 q 0,-15.86201 10.53671,-27.15768 10.53785,-11.29568 25.33481,-11.29568 h 263.05819 q 14.79811,0 25.33482,11.29568 10.53785,11.29567 10.53785,27.15768 V 714.2616 q 0,15.86201 -10.53785,27.15767 -10.53671,11.29568 -25.33482,11.29568 z"
         id="path1-17-2-8"
         style="fill:#47b1b9;fill-opacity:1;stroke-width:0.515835" /><path
         d="m 1628.0851,-39.93928 -227.52,131.52 227.52,131.52 227.52,-131.52 z m -345.6,459.83999 V 114.62072 c 0,-14.08 3.36,-26.88 10.08,-38.4 6.72,-11.52 16.1599,-20.8 28.32,-27.84 l 268.8,-154.56 c 6.4,-3.2 12.64,-5.76 18.72,-7.68 6.08,-1.92 12.64,-2.88 19.68,-2.88 7.04,0 13.76,0.96 20.16,2.88 6.4,1.92 12.48,4.48 18.24,7.68 l 268.8,154.56 c 12.16,7.04 21.6,16.32 28.32,27.84 6.72,11.52 10.08,24.32 10.08,38.4 v 114.24 c 0,10.88 -3.68,20 -11.04,27.36 -7.3601,7.36 -16.4801,11.04 -27.36,11.04 -10.88,0 -20,-3.68 -27.36,-11.04 -7.36,-7.36 -11.04,-16.48 -11.04,-27.36 v -72.96 l -231.36,133.43999 c -12.16,7.04 -24.96,10.56 -38.4,10.56 -13.44,0 -26.24,-3.52 -38.4,-10.56 l -229.44,-133.43999 v 263.03999 l 211.2,122.8801 c 5.76,3.2 10.4,7.68 13.92,13.44 3.52,5.76 5.28,12.16 5.28,19.2 0,14.72 -6.4,25.76 -19.2,33.12 -12.8,7.36 -25.6,7.52 -38.4,0.48 l -211.2,-121.92 c -12.1601,-7.04 -21.6,-16.32 -28.32,-27.84 -6.72,-11.52 -10.08,-24.32 -10.08,-38.4001 z"
         id="path1-76-0-98-6"
         style="display:inline;fill:#47b1b9;fill-opacity:1;stroke-width:0.96"
         transform="translate(-1264.4842,25.966081)" /></g></g></svg>
