<?xml version="1.0" encoding="UTF-8" standalone="no"?>
<svg
   height="17.599998"
   viewBox="0 -960 768 844.79992"
   width="16"
   fill="#f19e39"
   version="1.1"
   id="svg1"
   xml:space="preserve"
   xmlns="http://www.w3.org/2000/svg"
   xmlns:svg="http://www.w3.org/2000/svg"><defs
     id="defs1" /><g
     id="layer3"
     transform="translate(-6972.9599,-1852.7221)"><g
       id="g5"><path
         d="m 7548.96,1737.5221 c -53.12,0 -98.4,-18.72 -135.84,-56.16 -37.44,-37.44 -56.16,-82.72 -56.16,-135.84 0,-53.12 18.72,-98.4 56.16,-135.84 37.44,-37.44 82.72,-56.16 135.84,-56.16 53.12,0 98.4,18.72 135.84,56.16 37.44,37.44 56.16,82.72 56.16,135.84 0,53.12 -18.72,98.4 -56.16,135.84 -37.44,37.44 -82.72,56.16 -135.84,56.16 z m 0,-76.8 c 5.12,0 9.6,-1.92 13.44,-5.7601 3.84,-3.8399 5.76,-8.3199 5.76,-13.4399 0,-5.12 -1.92,-9.6 -5.76,-13.4401 -3.84,-3.8399 -8.32,-5.7599 -13.44,-5.7599 -5.12,0 -9.6,1.92 -13.44,5.7599 -3.84,3.8401 -5.76,8.3201 -5.76,13.4401 0,5.12 1.92,9.6 5.76,13.4399 3.84,3.8401 8.32,5.7601 13.44,5.7601 z m 0,-76.8001 c 5.12,0 9.6,-1.92 13.44,-5.7599 3.84,-3.84 5.76,-8.32 5.76,-13.44 v -115.2 c 0,-5.12 -1.92,-9.6 -5.76,-13.44 -3.84,-3.84 -8.32,-5.76 -13.44,-5.76 -5.12,0 -9.6,1.92 -13.44,5.76 -3.84,3.84 -5.76,8.32 -5.76,13.44 v 115.2 c 0,5.12 1.92,9.6 5.76,13.44 3.84,3.8399 8.32,5.7599 13.44,5.7599 z"
         id="path1-0-5"
         style="fill:#ef4444;fill-opacity:1;stroke-width:0.96" /><path
         d="m 1364.1451,-15.28519 -227.52,131.52 227.52,131.52 227.52,-131.52 z m -345.6,459.83996 V 139.27481 c 0,-14.08 3.36,-26.88 10.08,-38.4 6.72,-11.52 16.1599,-20.8 28.32,-27.84 l 268.8,-154.56 c 6.4,-3.2 12.64,-5.76 18.72,-7.68 6.08,-1.92 12.64,-2.88 19.68,-2.88 7.04,0 13.76,0.96 20.16,2.88 6.4,1.92 12.48,4.48 18.24,7.68 l 268.8,154.56 c 12.16,7.04 21.6,16.32 28.32,27.84 6.72,11.52 10.08,24.32 10.08,38.4 v 114.24 c 0,10.88 -3.68,20 -11.04,27.36 -7.3601,7.36 -16.4801,11.04 -27.36,11.04 -10.88,0 -20,-3.68 -27.36,-11.04 -7.36,-7.36 -11.04,-16.48 -11.04,-27.36 v -72.96 l -231.36,133.44 c -12.16,7.04 -24.96,10.56 -38.4,10.56 -13.44,0 -26.24,-3.52 -38.4,-10.56 l -229.44,-133.44 v 263.03996 l 211.2,122.8801 c 5.76,3.2 10.4,7.68 13.92,13.44 3.52,5.76 5.28,12.16 5.28,19.2 0,14.72 -6.4,25.76 -19.2,33.12 -12.8,7.36 -25.6,7.52 -38.4,0.48 l -211.2,-121.92 c -12.1601,-7.04 -21.6,-16.32 -28.32,-27.84 -6.72,-11.52 -10.08,-24.32 -10.08,-38.4001 z"
         id="path1-76-0-98"
         style="display:inline;fill:#ef4444;fill-opacity:1;stroke-width:0.96"
         transform="translate(5954.4149,984.80721)" /></g></g></svg>
