<?xml version="1.0" encoding="UTF-8" standalone="no"?>
<svg
   height="16.991112"
   viewBox="0 -960 691.19971 815.57336"
   width="14.399994"
   fill="#f19e39"
   version="1.1"
   id="svg1"
   xml:space="preserve"
   xmlns="http://www.w3.org/2000/svg"
   xmlns:svg="http://www.w3.org/2000/svg"><defs
     id="defs1" /><g
     id="layer3"
     transform="translate(-18462.002,-1743.2535)"><g
       id="g24-3-4-8-2-3-6"
       transform="translate(18444,874.02676)"
       style="fill:#ff8126;fill-opacity:1"><path
         d="M 544.45797,589.28243 442.34909,572.34272 q -10.35206,-1.8822 -13.41057,-11.99897 -3.05863,-10.11677 4.94075,-17.17499 L 619.27504,367.65448 q 2.35268,-2.35273 5.41119,-3.29383 3.05863,-0.94109 8.23466,-0.94109 8.46982,0 12.94001,7.29348 4.47019,7.2935 0.70584,14.82226 l -56.93631,113.40198 102.10889,16.93971 q 10.35205,1.8822 13.41057,11.99897 3.05863,10.11677 -4.94075,17.17499 L 514.81336,720.56523 q -2.35267,2.35273 -5.41119,3.29383 -3.05863,0.94109 -8.23466,0.94109 -8.46982,0 -12.94001,-7.29348 -4.47019,-7.2935 -0.70584,-14.82226 z"
         id="path1-80-3-8"
         style="fill:#ff8126;fill-opacity:1;stroke-width:0.470548" /><path
         d="m 1636.834,14.6396 -227.52,131.52 227.52,131.52 227.52,-131.52 z m -345.6,459.83999 V 169.1996 c 0,-14.08 3.36,-26.88 10.0801,-38.4 6.7199,-11.52 16.1598,-20.8 28.3199,-27.84 l 268.8,-154.56 c 6.4001,-3.2 12.6401,-5.76 18.72,-7.68 6.08,-1.92 12.6401,-2.88 19.6801,-2.88 7.0399,0 13.76,0.96 20.16,2.88 6.4,1.92 12.48,4.48 18.24,7.68 l 268.8,154.56 c 12.16,7.04 21.5999,16.32 28.32,27.84 6.72,11.52 10.0799,24.32 10.0799,38.4 v 114.24 c 0,10.88 -3.68,20 -11.04,27.36 -7.3601,7.36 -16.4801,11.04 -27.3599,11.04 -10.8801,0 -20,-3.68 -27.36,-11.04 -7.36,-7.36 -11.04,-16.48 -11.04,-27.36 v -72.96 l -231.36,133.43999 c -12.16,7.04 -24.96,10.56 -38.4,10.56 -13.44,0 -26.24,-3.52 -38.4,-10.56 l -229.44,-133.43999 v 263.03999 l 211.2,122.8801 c 5.76,3.2 10.4,7.68 13.92,13.44 3.52,5.76 5.28,12.16 5.28,19.2 0,14.72 -6.4,25.76 -19.2,33.12 -12.8,7.36 -25.6,7.52 -38.4,0.48 l -211.2,-121.92 c -12.1601,-7.04 -21.6,-16.32 -28.32,-27.84 -6.72,-11.52 -10.08,-24.32 -10.0801,-38.4001 z"
         id="path1-76-0-98-2"
         style="display:inline;fill:#ff8126;fill-opacity:1;stroke-width:0.96"
         transform="translate(-1273.2332,-28.612797)" /></g></g></svg>
