<?xml version="1.0" encoding="UTF-8" standalone="no"?>
<svg
   height="16.682335"
   viewBox="0 -960 734.37744 800.75207"
   width="15.29953"
   fill="#f19e39"
   version="1.1"
   id="svg1"
   xml:space="preserve"
   xmlns="http://www.w3.org/2000/svg"
   xmlns:svg="http://www.w3.org/2000/svg"><defs
     id="defs1" /><g
     id="layer3"
     transform="translate(-17188.768,-1714.6408)"><g
       id="g24-3-4-1-9"
       transform="translate(17170.767,845.41396)"
       style="fill:#a78bfa;fill-opacity:1"><path
         d="m 572.57477,709.97889 q -5.86446,0 -9.89648,-3.9748 -4.0331,-3.9748 -4.0331,-9.85058 V 565.38837 L 423.27205,400.63583 q -5.18434,-6.9127 -1.57794,-14.68948 3.5999,-7.77678 12.52276,-7.77678 h 304.15908 q 8.92285,0 12.52275,7.77678 3.6064,7.77678 -1.57793,14.68948 L 613.94763,565.38837 v 130.76514 q 0,5.87578 -3.96379,9.85058 -3.96921,3.9748 -9.82717,3.9748 z"
         id="path1-94-6-7"
         style="fill:#a78bfa;fill-opacity:1;stroke-width:0.576058" /><path
         d="m 1592.993,-14.67116 -227.52,131.52 227.52,131.51999 227.52,-131.51999 z m -345.6,459.83999 V 139.88884 c 0,-14.08 3.36,-26.88 10.08,-38.4 6.72,-11.52 16.1599,-20.8 28.32,-27.84 l 268.8,-154.56 c 6.4,-3.2 12.64,-5.76 18.72,-7.68 6.08,-1.92 12.64,-2.88 19.68,-2.88 7.04,0 13.76,0.96 20.16,2.88 6.4,1.92 12.48,4.48 18.24,7.68 l 268.8,154.56 c 12.16,7.04 21.6,16.32 28.32,27.84 6.72,11.52 10.08,24.32 10.08,38.4 v 114.23999 c 0,10.88 -3.68,20 -11.04,27.36 -7.3601,7.36 -16.4801,11.04 -27.36,11.04 -10.88,0 -20,-3.68 -27.36,-11.04 -7.36,-7.36 -11.04,-16.48 -11.04,-27.36 v -72.95999 l -231.36,133.43999 c -12.16,7.04 -24.96,10.56 -38.4,10.56 -13.44,0 -26.24,-3.52 -38.4,-10.56 l -229.44,-133.43999 v 263.03999 l 211.2,122.8801 c 5.76,3.2 10.4,7.68 13.92,13.44 3.52,5.76 5.28,12.16 5.28,19.2 0,14.72 -6.4,25.76 -19.2,33.12 -12.8,7.36 -25.6,7.52 -38.4,0.48 l -211.2,-121.92 c -12.1601,-7.04 -21.6,-16.32 -28.32,-27.84 -6.72,-11.52 -10.08,-24.32 -10.08,-38.4001 z"
         id="path1-76-0-98-0"
         style="display:inline;fill:#a78bfa;fill-opacity:1;stroke-width:0.96"
         transform="translate(-1229.392,0.69797099)" /></g></g></svg>
