<?xml version="1.0" encoding="UTF-8" standalone="no"?>
<svg
   height="17.777775"
   viewBox="0 -960 767.99963 853.33319"
   width="15.999992"
   fill="#f19e39"
   version="1.1"
   id="svg1"
   xml:space="preserve"
   xmlns="http://www.w3.org/2000/svg"
   xmlns:svg="http://www.w3.org/2000/svg"><defs
     id="defs1" /><g
     id="layer3"
     transform="translate(-3830.4768,-1836.4592)"><path
       d="m 4171.8098,1619.9258 v -292.2666 l -256,-148.2667 v 292.2667 z m 85.3333,0 256,-148.2666 v -292.2667 l -256,148.2667 z m -42.6666,-365.8666 252.8,-146.1334 -252.8,-146.13328 -252.8,146.13328 z m -341.3333,292.2666 q -20.2667,-11.7333 -31.4667,-30.9333 -11.2,-19.2 -11.2,-42.6667 v -339.2 q 0,-23.4666 11.2,-42.6666 11.2,-19.2 31.4667,-30.9334 l 298.6666,-171.73328 q 20.2667,-11.73333 42.6667,-11.73333 22.4,0 42.6666,11.73333 l 298.6667,171.73328 q 20.2666,11.7334 31.4666,30.9334 11.2,19.2 11.2,42.6666 v 339.2 q 0,23.4667 -11.2,42.6667 -11.2,19.2 -31.4666,30.9333 l -298.6667,171.7333 q -20.2666,11.7334 -42.6666,11.7334 -22.4,0 -42.6667,-11.7334 z m 341.3333,-243.2 z"
       id="path1-82-2"
       style="fill:#a78bfa;fill-opacity:1;stroke-width:1.06667" /></g></svg>
