<?xml version="1.0" encoding="UTF-8" standalone="no"?>
<svg
   height="16.991112"
   viewBox="0 -960 768.97119 815.57336"
   width="16.020233"
   fill="#f19e39"
   version="1.1"
   id="svg1"
   xml:space="preserve"
   xmlns="http://www.w3.org/2000/svg"
   xmlns:svg="http://www.w3.org/2000/svg"><defs
     id="defs1" /><g
     id="layer3"
     transform="translate(-14694.892,-1741.3048)"><g
       id="g24-3-4-8-2-5"
       transform="translate(14676.891,872.07801)"
       style="fill:#ff8126;fill-opacity:1"><path
         d="m 605.54033,541.86847 v -63.03146 q 0,-7.44221 -5.14339,-12.69026 -5.14229,-5.24804 -12.74447,-5.24804 -7.60217,0 -12.85137,5.1281 -5.24702,5.12308 -5.24702,12.70524 v 70.87852 q 0,3.56368 1.49883,6.90742 1.49993,3.34377 4.16926,6.01277 l 49.81067,49.8114 q 5.49791,5.49794 12.74556,5.24803 7.24765,-0.2499 12.74447,-5.74786 5.49792,-5.49794 5.49792,-12.74524 0,-7.24729 -5.49792,-12.74524 z m -17.99367,182.93168 q -34.98703,0 -65.53973,-13.29503 -30.55924,-13.29503 -53.18032,-35.92158 -22.62654,-22.62155 -35.9219,-53.18015 -13.29535,-30.55357 -13.29535,-65.54052 0,-34.98693 13.29535,-65.54052 13.29536,-30.5586 35.9219,-53.18014 22.62108,-22.62655 53.18032,-35.92159 30.5527,-13.29502 65.53973,-13.29502 34.98812,0 65.54082,13.29502 30.55924,13.29502 53.18032,35.92159 22.62654,22.62154 35.92189,53.18014 13.29536,30.55358 13.29536,65.54052 0,34.98693 -13.29536,65.54052 -13.29535,30.5586 -35.92189,53.18015 -22.62108,22.62655 -53.18032,35.92158 -30.5527,13.29503 -65.54082,13.29503 z M 394.11932,447.90357 q -5.49791,-5.49794 -5.49791,-12.74523 0,-7.2473 5.49791,-12.74526 l 59.47784,-59.47778 q 5.49792,-5.49794 12.74557,-5.49794 7.24655,0 12.74447,5.49794 5.49791,5.49794 5.49791,12.74523 0,7.2473 -5.49791,12.74526 l -59.97745,59.97759 q -5.49792,5.49794 -12.49576,5.24803 -6.99675,-0.2499 -12.49467,-5.74784 z m 387.35538,0 q -5.49792,5.49794 -12.74557,5.49794 -7.24655,0 -12.74447,-5.49794 l -59.47784,-59.47778 q -5.49791,-5.49796 -5.49791,-12.74526 0,-7.24729 5.49791,-12.74523 5.49792,-5.49794 12.74556,-5.49794 7.24656,0 12.74448,5.49794 l 59.47784,59.9776 q 5.49791,5.49795 5.49791,12.49533 0,6.9974 -5.49791,12.49534 z"
         id="path1-20-5-6"
         style="fill:#ff8126;fill-opacity:1;stroke-width:0.499814" /><path
         d="m 1661.793,14.6396 -227.52,131.52 227.52,131.52 227.52,-131.52 z m -345.6,459.83996 V 169.1996 c 0,-14.08 3.36,-26.88 10.08,-38.4 6.72,-11.52 16.1599,-20.8 28.32,-27.84 l 268.8,-154.56 c 6.4,-3.2 12.64,-5.76 18.72,-7.68 6.08,-1.92 12.64,-2.88 19.68,-2.88 7.04,0 13.76,0.96 20.16,2.88 6.4,1.92 12.48,4.48 18.24,7.68 l 268.8,154.56 c 12.16,7.04 21.6,16.32 28.32,27.84 6.72,11.52 10.08,24.32 10.08,38.4 v 114.24 c 0,10.88 -3.68,20 -11.04,27.36 -7.3601,7.36 -16.4801,11.04 -27.36,11.04 -10.88,0 -20,-3.68 -27.36,-11.04 -7.36,-7.36 -11.04,-16.48 -11.04,-27.36 v -72.96 l -231.36,133.44 c -12.16,7.04 -24.96,10.56 -38.4,10.56 -13.44,0 -26.24,-3.52 -38.4,-10.56 l -229.44,-133.44 v 263.03996 l 211.2,122.88013 c 5.76,3.2 10.4,7.68 13.92,13.44 3.52,5.76 5.28,12.16 5.28,19.2 0,14.72 -6.4,25.76 -19.2,33.12 -12.8,7.36 -25.6,7.52 -38.4,0.48 l -211.2,-121.92 c -12.1601,-7.04 -21.6,-16.32 -28.32,-27.84 -6.72,-11.52 -10.08,-24.32 -10.08,-38.40013 z"
         id="path1-76-0-98-18"
         style="display:inline;fill:#ff8126;fill-opacity:1;stroke-width:0.96"
         transform="translate(-1298.1918,-28.612799)" /></g></g></svg>
