<?xml version="1.0" encoding="UTF-8" standalone="no"?>
<svg
   height="17.587212"
   viewBox="0 -960 722.54443 844.18615"
   width="15.053009"
   fill="#f19e39"
   version="1.1"
   id="svg1"
   xml:space="preserve"
   xmlns="http://www.w3.org/2000/svg"
   xmlns:svg="http://www.w3.org/2000/svg"><defs
     id="defs1" /><g
     id="layer3"
     transform="translate(-13396.701,-1712.692)"><g
       id="g24-3-4-8-6"
       transform="translate(13378.699,843.46521)"
       style="fill:#3b82f6;fill-opacity:1"><path
         d="m 586.29641,753.41292 q -2.96629,0 -5.93269,-0.24719 -2.96629,-0.24719 -5.43832,-1.23598 Q 510.16014,730.6709 471.10317,673.32145 432.0462,615.97201 432.0462,548.24034 v -88.99052 q 0,-11.37102 6.17987,-20.27006 6.17997,-8.89905 16.56214,-12.85419 l 118.6541,-45.48404 q 6.42705,-2.47196 12.8541,-2.47196 6.42715,0 12.8542,2.47196 l 118.6541,45.48404 q 10.38217,3.95514 16.56203,12.85419 6.17998,8.89904 6.17998,20.27006 v 88.99052 q 0,67.73167 -39.05697,125.08111 -39.05697,57.34945 -103.82223,78.6083 -2.47203,0.98879 -5.43832,1.23598 -2.9664,0.24719 -5.93279,0.24719 z"
         id="path1-84-9-3"
         style="fill:#3b82f6;fill-opacity:1;stroke-width:0.494392" /><path
         d="m 363.60105,-13.97319 -227.52,131.51999 227.52,131.52 227.52,-131.52 z m -345.6,459.83999 v -305.28 c 0,-14.08 3.36,-26.88 10.08,-38.4 6.72,-11.52 16.1599,-20.8 28.32,-27.84 l 268.8,-154.55999 c 6.4,-3.2 12.64,-5.76 18.72,-7.68 6.08,-1.92 12.64,-2.88 19.68,-2.88 7.04,0 13.76,0.96 20.16,2.88 6.4,1.92 12.48,4.48 18.24,7.68 l 268.8,154.55999 c 12.16,7.04 21.6,16.32 28.32,27.84 6.72,11.52 10.08,24.32 10.08,38.4 v 114.24 c 0,10.88 -3.68,20 -11.04,27.36 -7.3601,7.36 -16.4801,11.04 -27.36,11.04 -10.88,0 -20,-3.68 -27.36,-11.04 -7.36,-7.36 -11.04,-16.48 -11.04,-27.36 v -72.96 l -231.36,133.44 c -12.16,7.04 -24.96,10.56 -38.4,10.56 -13.44,0 -26.24,-3.52 -38.4,-10.56 l -229.44,-133.44 v 263.04 l 211.2,122.8801 c 5.76,3.2 10.4,7.68 13.92,13.44 3.52,5.76 5.28,12.16 5.28,19.2 0,14.72 -6.4,25.76 -19.2,33.12 -12.8,7.36 -25.6,7.52 -38.4,0.48 l -211.2,-121.92 c -12.1601,-7.04 -21.6,-16.32 -28.32,-27.84 -6.72,-11.52 -10.08,-24.32 -10.08,-38.4001 z"
         id="path1-76-0-98-8"
         style="display:inline;fill:#3b82f6;fill-opacity:1;stroke-width:0.96" /></g></g></svg>
