<?xml version="1.0" encoding="UTF-8" standalone="no"?>
<svg
  fill="#f19e39"
  height="40"
  id="svg1"
  version="1.1"
  viewBox="0 -960 781.31982 844.80011"
  width="40"
  xmlns="http://www.w3.org/2000/svg"
  xml:space="preserve"
><defs
     id="defs1" />
  <g
    id="layer2"
    transform="translate(-9531.0577,-873.59528)"><g
       style="fill:#22c55e;fill-opacity:1"
       id="g24-3-8"
       transform="translate(9513.0571,4.3684617)"><path
         style="fill:#22c55e;fill-opacity:1;stroke-width:0.96"
         d="m 363.60105,325.86685 c 7.04,0 13.76,-0.96 20.16,-2.88001 6.4,-1.92 12.48,-4.48 18.24,-7.68 l 194.88,-112.32004 c 8.96,-5.12 14.72,-12.96 17.28,-23.52 2.56,-10.56 1.28,-20.32 -3.84,-29.28 -5.12,-8.96 -12.8,-14.72 -23.04,-17.28 -10.24,-2.56 -19.84,-1.28 -28.8,3.84 l -194.88,112.32 -194.88,-112.32 c -8.96,-5.12 -18.56,-6.4 -28.8,-3.84 -10.24,2.56 -17.92,8.32 -23.04,17.28 -5.12,8.96 -6.24,18.72 -3.36,29.28 2.88,10.56 8.8,18.4 17.76,23.52 l 193.92,112.32004 c 5.76,3.2 11.84,5.76 18.24,7.68 6.4,1.92001 13.12,2.88001 20.16,2.88001 z m -345.600005,120 V 140.5868 c 0,-14.08 3.36,-26.88 10.08,-38.4 6.72,-11.519999 16.16,-20.799998 28.32,-27.839998 l 268.800005,-154.56 c 6.4,-3.2 12.64,-5.76 18.72,-7.68 6.08,-1.92 12.64,-2.88 19.68,-2.88 7.04,0 13.76,0.96 20.16,2.88 6.4,1.92 12.48,4.48 18.24,7.68 l 268.8,154.56 c 12.16,7.04 21.6,16.319999 28.32,27.839998 6.72,11.52 10.08,24.32 10.08,38.4 v 130.56004 c 0,11.52 -4.8,20.48 -14.4,26.88 -9.6,6.4 -19.84,8 -30.72,4.8 -10.88,-3.2 -22.24,-5.6 -34.08,-7.2 -11.84,-1.6 -23.84,-2.4 -36,-2.4 -74.24,0 -137.6,26.24 -190.08,78.72001 -52.48,52.48 -78.72,115.84 -78.72,190.08 v 19.68 c 0,6.08 0.64,11.68 1.92,16.8 2.56,16 -2.08,28.48 -13.92,37.44 -11.84,8.96 -24.16,9.92 -36.96,2.88 l -219.840005,-126.72 c -12.16,-7.04 -21.6,-16.32 -28.32,-27.84 -6.72,-11.52 -10.08,-24.32 -10.08,-38.4 z"
         id="path1-0-4-5-24" /><path
    style="fill:#fffff0;fill-opacity:1;stroke-width:0.58246"
    d="m 594.24105,754.02685 q -19.22074,0 -38.73319,-4.36846 -19.51254,-4.36843 -39.89863,-12.5229 6.98955,-70.47777 40.77228,-131.63616 33.78241,-61.15839 86.78722,-107.75524 -64.07087,32.6178 -110.95937,86.20421 -46.88797,53.5864 -65.52688,122.31677 -2.32985,-1.74738 -4.36841,-3.78599 l -4.36842,-4.36845 q -27.37564,-27.37567 -41.64602,-61.15839 -14.27028,-33.78274 -14.27028,-70.47777 0,-39.60734 15.72649,-75.71992 15.72649,-36.11257 43.68458,-64.07069 40.77228,-40.77225 101.05699,-57.08116 60.28462,-16.30891 162.79823,-11.64922 15.1432,0.58246 27.95779,6.6983 12.81355,6.11585 22.71635,16.01769 9.90176,9.90182 15.72638,23.0072 5.82463,13.10536 6.98893,28.24934 3.49498,104.84296 -12.2314,163.67148 -15.72639,58.82855 -55.91661,99.01835 -28.53994,28.54059 -63.77929,43.9758 -35.23831,15.43521 -72.51674,15.43521 z"
    id="path1-4-1"/></g></g></svg>
