<?xml version="1.0" encoding="UTF-8" standalone="no"?>
<svg
   height="17.777777"
   viewBox="0 -960 768 853.33328"
   width="16"
   fill="#f19e39"
   version="1.1"
   id="svg1"
   xml:space="preserve"
   xmlns="http://www.w3.org/2000/svg"
   xmlns:svg="http://www.w3.org/2000/svg"><defs
     id="defs1" /><g
     id="layer2"
     transform="translate(-14224.893,-860.69354)"><path
       d="m 14566.225,742.29355 -298.666,-171.7334 q -20.267,-11.7333 -31.467,-30.9333 -11.2,-19.2 -11.2,-42.6667 v -339.2 q 0,-23.4666 11.2,-42.6666 11.2,-19.199998 31.467,-30.933398 l 298.666,-171.7333 q 20.267,-11.7333 42.667,-11.7333 22.4,0 42.667,11.7333 l 298.666,171.7333 q 20.267,11.7334 31.467,30.933398 11.2,19.2 11.2,42.6666 v 339.2 q 0,23.4667 -11.2,42.6667 -11.2,19.2 -31.467,30.9333 l -298.666,171.7334 q -20.267,11.7333 -42.667,11.7333 -22.4,0 -42.667,-11.7333 z m 0,-390.4 v 292.2666 l 42.667,24.5334 42.667,-24.5334 v -292.2666 l 256,-148.2667 v -44.8 l -45.867,-26.6667 -252.8,146.1334 -252.8,-146.1334 -45.867,26.6667 v 44.8 z"
       id="path1-65-1"
       style="fill:#94a3b8;fill-opacity:1;stroke-width:1.06667" /></g></svg>
