<?xml version="1.0" encoding="UTF-8" standalone="no"?>
<svg
   height="17.25411"
   viewBox="0 -960 699.71521 828.19729"
   width="14.5774"
   fill="#f19e39"
   version="1.1"
   id="svg1"
   xml:space="preserve"
   xmlns="http://www.w3.org/2000/svg"
   xmlns:svg="http://www.w3.org/2000/svg"><defs
     id="defs1" /><g
     id="layer2"
     transform="translate(-4840.2602,-869.22681)"><path
       d="m 5185.86,325.86681 q 10.5601,0 20.16,-2.88001 9.6001,-2.88 18.24,-7.68 l 194.88,-112.32 q 13.4401,-7.68 17.28,-23.52 3.84,-15.84 -3.8399,-29.28 -7.6801,-13.44 -23.04,-17.28 -15.36,-3.84 -28.8001,3.84 l -194.88,112.32 -194.88,-112.32 q -13.4399,-7.68 -28.7999,-3.84 -15.3599,3.84 -23.04,17.28 -7.68,13.44 -3.3599,29.28 4.3199,15.84 17.76,23.52 l 193.92,112.32 q 8.64,4.8 18.2399,7.68 9.6,2.88001 20.1599,2.88001 z m -345.6,120 V 140.5868 q 0,-21.12 10.08,-38.4 10.08,-17.279998 28.32,-27.839998 l 268.8,-154.56 q 9.6,-4.8 18.72,-7.68 9.12,-2.88 19.68,-2.88 10.5601,0 20.16,2.88 9.6001,2.88 18.24,7.68 l 268.8,154.56 q 18.24,10.56 28.32,27.839998 10.08,17.28 10.08,38.4 v 130.56 q 0,17.28 -14.4,26.88 -14.3999,9.6 -30.72,4.8 -16.32,-4.8 -34.08,-7.2 -17.76,-2.4 -36,-2.4 -111.36,0 -190.08,78.72001 -78.72,78.72 -78.72,190.08 v 19.68 q 0,9.12 1.92,16.8 3.84,24 -13.92,37.44 -17.76,13.44 -36.96,2.88 l -219.84,-126.72 q -18.24,-10.56 -28.32,-27.84 -10.08,-17.28 -10.08,-38.4 z m 576,308.16 q -79.68,0 -135.84,-56.16 -56.16,-56.16 -56.16,-135.84 0,-79.68 56.16,-135.84 56.1601,-56.16 135.84,-56.16 79.68,0 135.84,56.16 56.16,56.16 56.16,135.84 0,79.68 -56.16,135.84 -56.16,56.16 -135.84,56.16 z m 0,-76.8 q 7.68,0 13.44,-5.76 5.76,-5.76 5.76,-13.44 0,-7.68 -5.76,-13.44 -5.76,-5.76 -13.44,-5.76 -7.68,0 -13.44,5.76 -5.76,5.76 -5.76,13.44 0,7.68 5.76,13.44 5.7601,5.76 13.44,5.76 z m 0,-76.8 q 7.68,0 13.44,-5.76 5.76,-5.76 5.76,-13.44 v -115.2 q 0,-7.68 -5.76,-13.44 -5.76,-5.76 -13.44,-5.76 -7.68,0 -13.44,5.76 -5.76,5.76 -5.76,13.44 v 115.2 q 0,7.68 5.76,13.44 5.7601,5.76 13.44,5.76 z"
       id="path1-0-8"
       style="display:none;fill:#ef4444;fill-opacity:0.322738;stroke-width:0.96" /><g
       id="g24-3-2"
       transform="translate(4822.259)"
       style="fill:#4ade80;fill-opacity:1"><path
         d="m 363.60105,325.86685 c 7.04,0 13.76,-0.96 20.16,-2.88001 6.4,-1.92 12.48,-4.48 18.24,-7.68 l 194.88,-112.32004 c 8.96,-5.12 14.72,-12.96 17.28,-23.52 2.56,-10.56 1.28,-20.32 -3.84,-29.28 -5.12,-8.96 -12.8,-14.72 -23.04,-17.28 -10.24,-2.56 -19.84,-1.28 -28.8,3.84 l -194.88,112.32 -194.88,-112.32 c -8.96,-5.12 -18.56,-6.4 -28.8,-3.84 -10.24,2.56 -17.92,8.32 -23.04,17.28 -5.12,8.96 -6.24,18.72 -3.36,29.28 2.88,10.56 8.8,18.4 17.76,23.52 l 193.92,112.32004 c 5.76,3.2 11.84,5.76 18.24,7.68 6.4,1.92001 13.12,2.88001 20.16,2.88001 z m -345.600005,120 V 140.5868 c 0,-14.08 3.36,-26.88 10.08,-38.4 6.72,-11.519999 16.16,-20.799998 28.32,-27.839998 l 268.800005,-154.56 c 6.4,-3.2 12.64,-5.76 18.72,-7.68 6.08,-1.92 12.64,-2.88 19.68,-2.88 7.04,0 13.76,0.96 20.16,2.88 6.4,1.92 12.48,4.48 18.24,7.68 l 268.8,154.56 c 12.16,7.04 21.6,16.319999 28.32,27.839998 6.72,11.52 10.08,24.32 10.08,38.4 v 130.56004 c 0,11.52 -4.8,20.48 -14.4,26.88 -9.6,6.4 -19.84,8 -30.72,4.8 -10.88,-3.2 -22.24,-5.6 -34.08,-7.2 -11.84,-1.6 -23.84,-2.4 -36,-2.4 -74.24,0 -137.6,26.24 -190.08,78.72001 -52.48,52.48 -78.72,115.84 -78.72,190.08 v 19.68 c 0,6.08 0.64,11.68 1.92,16.8 2.56,16 -2.08,28.48 -13.92,37.44 -11.84,8.96 -24.16,9.92 -36.96,2.88 l -219.840005,-126.72 c -12.16,-7.04 -21.6,-16.32 -28.32,-27.84 -6.72,-11.52 -10.08,-24.32 -10.08,-38.4 z"
         id="path1-0-4-5-0"
         style="fill:#4ade80;fill-opacity:1;stroke-width:0.96" /><path
         d="m 665.09702,737.42415 q -21.92468,0 -37.27196,-15.34728 -15.34726,-15.34726 -15.34726,-37.27193 0,-2.63095 1.31548,-12.27782 l -123.21664,-71.9129 q -7.01588,6.57739 -16.22425,10.3046 -9.20834,3.72718 -19.7322,3.72718 -21.92466,0 -37.27194,-15.34727 -15.34725,-15.34725 -15.34725,-37.27192 0,-21.92467 15.34725,-37.27195 15.34728,-15.34725 37.27194,-15.34725 10.52386,0 19.7322,3.72718 9.20837,3.72721 16.22425,10.30461 l 123.21664,-71.91293 q -0.87698,-3.06944 -1.09623,-5.91965 -0.21925,-2.85021 -0.21925,-6.35815 0,-21.92468 15.34726,-37.27195 15.34728,-15.34726 37.27196,-15.34726 21.92469,0 37.27188,15.34726 15.34728,15.34727 15.34728,37.27195 0,21.92468 -15.34728,37.27193 -15.34719,15.34727 -37.27188,15.34727 -10.52386,0 -19.73223,-3.72719 -9.20834,-3.72721 -16.22423,-10.30459 l -123.21664,71.91289 q 0.87699,3.06946 1.09622,5.91967 0.21926,2.85021 0.21926,6.35816 0,3.50794 -0.21926,6.35815 -0.21923,2.85021 -1.09622,5.91965 l 123.21664,71.91293 q 7.01589,-6.57741 16.22423,-10.30461 9.20837,-3.72718 19.73223,-3.72718 21.92469,0 37.27188,15.34726 15.34728,15.34727 15.34728,37.27193 0,21.92467 -15.34728,37.27193 -15.34719,15.34728 -37.27188,15.34728 z m 0,-35.07947 q 7.45434,0 12.49707,-5.04268 5.04263,-5.04267 5.04263,-12.49706 0,-7.45439 -5.04263,-12.49706 -5.04273,-5.04267 -12.49707,-5.04267 -7.4544,0 -12.49708,5.04267 -5.04267,5.04267 -5.04267,12.49706 0,7.45439 5.04267,12.49706 5.04268,5.04268 12.49708,5.04268 z M 454.62019,579.56653 q 7.45439,0 12.49706,-5.04267 5.04269,-5.04267 5.04269,-12.49705 0,-7.45439 -5.04269,-12.49706 -5.04267,-5.04268 -12.49706,-5.04268 -7.45437,0 -12.49705,5.04268 -5.04269,5.04267 -5.04269,12.49706 0,7.45438 5.04269,12.49705 5.04268,5.04267 12.49705,5.04267 z m 222.9739,-127.8208 q 5.04263,-5.04268 5.04263,-12.49706 0,-7.45438 -5.04263,-12.49706 -5.04273,-5.04268 -12.49707,-5.04268 -7.4544,0 -12.49708,5.04268 -5.04267,5.04268 -5.04267,12.49706 0,7.45438 5.04267,12.49706 5.04268,5.04267 12.49708,5.04267 7.45434,0 12.49707,-5.04267 z M 665.09702,684.80494 Z M 454.62019,562.02681 Z M 665.09702,439.24867 Z"
         id="path1-79-7"
         style="fill:#4ade80;fill-opacity:1;stroke-width:0.438493" /></g></g></svg>
