<?xml version="1.0" encoding="UTF-8" standalone="no"?>
<svg
   height="17.6"
   viewBox="0 -960 768 844.80001"
   width="16"
   fill="#f19e39"
   version="1.1"
   id="svg1"
   xml:space="preserve"
   xmlns="http://www.w3.org/2000/svg"
   xmlns:svg="http://www.w3.org/2000/svg"><defs
     id="defs1" /><g
     id="layer2"
     transform="translate(-6966,-869.22681)"><path
       d="m 7311.6,325.86685 q 10.56,0 20.16,-2.88001 9.6,-2.88 18.24,-7.68 l 194.88,-112.32 q 13.44,-7.68 17.28,-23.52 3.84,-15.84 -3.84,-29.28 -7.68,-13.44 -23.04,-17.28 -15.36,-3.84 -28.8,3.84 l -194.88,112.32 -194.88,-112.32 q -13.44,-7.68 -28.8,-3.84 -15.36,3.84 -23.04,17.28 -7.68,13.44 -3.36,29.28 4.32,15.84 17.76,23.52 l 193.92,112.32 q 8.64,4.8 18.24,7.68 9.6,2.88001 20.16,2.88001 z m -345.6,120 V 140.58684 q 0,-21.12 10.08,-38.4 10.08,-17.279998 28.32,-27.839998 l 268.8,-154.560004 q 9.6,-4.8 18.72,-7.68 9.12,-2.88 19.68,-2.88 10.56,0 20.16,2.88 9.6,2.88 18.24,7.68 l 268.8,154.560004 q 18.24,10.56 28.32,27.839998 10.08,17.28 10.08,38.4 v 130.56 q 0,17.28 -14.4,26.88 -14.4,9.6 -30.72,4.8 -16.32,-4.8 -34.08,-7.2 -17.76,-2.4 -36,-2.4 -111.36,0 -190.08,78.72001 -78.72,78.72 -78.72,190.08 v 19.68 q 0,9.12 1.92,16.8 3.84,24 -13.92,37.44 -17.76,13.44 -36.96,2.88 l -219.84,-126.72 q -18.24,-10.56 -28.32,-27.84 -10.08,-17.28 -10.08,-38.4 z m 576,308.16 q -79.68,0 -135.84,-56.16 -56.16,-56.16 -56.16,-135.84 0,-79.68 56.16,-135.84 56.16,-56.16 135.84,-56.16 79.68,0 135.84,56.16 56.16,56.16 56.16,135.84 0,79.68 -56.16,135.84 -56.16,56.16 -135.84,56.16 z m 0,-76.8 q 7.68,0 13.44,-5.76 5.76,-5.76 5.76,-13.44 0,-7.68 -5.76,-13.44 -5.76,-5.76 -13.44,-5.76 -7.68,0 -13.44,5.76 -5.76,5.76 -5.76,13.44 0,7.68 5.76,13.44 5.76,5.76 13.44,5.76 z m 0,-76.8 q 7.68,0 13.44,-5.76 5.76,-5.76 5.76,-13.44 v -115.2 q 0,-7.68 -5.76,-13.44 -5.76,-5.76 -13.44,-5.76 -7.68,0 -13.44,5.76 -5.76,5.76 -5.76,13.44 v 115.2 q 0,7.68 5.76,13.44 5.76,5.76 13.44,5.76 z"
       id="path1-0"
       style="fill:#ef4444;fill-opacity:1;stroke-width:0.96" /></g></svg>
