<?xml version="1.0" encoding="UTF-8" standalone="no"?>
<svg
   height="16.682335"
   viewBox="0 -960 734.37744 800.75207"
   width="15.29953"
   fill="#f19e39"
   version="1.1"
   id="svg1"
   xml:space="preserve"
   xmlns="http://www.w3.org/2000/svg"
   xmlns:svg="http://www.w3.org/2000/svg"><defs
     id="defs1" /><g
     id="layer2"
     transform="translate(-17188.769,-869.8407)"><g
       id="g24-3-4-1"
       transform="translate(17170.768,0.61393172)"
       style="fill:#a78bfa;fill-opacity:1"><path
         d="m 363.60105,325.86685 c 7.04,0 13.76,-0.96 20.16,-2.88001 6.4,-1.92 12.48,-4.48 18.24,-7.68 l 194.88,-112.32004 c 8.96,-5.12 14.72,-12.96 17.28,-23.52 2.56,-10.56 1.28,-20.32 -3.84,-29.28 -5.12,-8.96 -12.8,-14.72 -23.04,-17.28 -10.24,-2.56 -19.84,-1.28 -28.8,3.84 l -194.88,112.32 -194.88,-112.32 c -8.96,-5.12 -18.56,-6.4 -28.8,-3.84 -10.24,2.56 -17.92,8.32 -23.04,17.28 -5.12,8.96 -6.24,18.72 -3.36,29.28 2.88,10.56 8.8,18.4 17.76,23.52 l 193.92,112.32004 c 5.76,3.2 11.84,5.76 18.24,7.68 6.4,1.92001 13.12,2.88001 20.16,2.88001 z m -345.600005,120 V 140.5868 c 0,-14.08 3.36,-26.88 10.08,-38.4 6.72,-11.519999 16.16,-20.799998 28.32,-27.839998 l 268.800005,-154.56 c 6.4,-3.2 12.64,-5.76 18.72,-7.68 6.08,-1.92 12.64,-2.88 19.68,-2.88 7.04,0 13.76,0.96 20.16,2.88 6.4,1.92 12.48,4.48 18.24,7.68 l 268.8,154.56 c 12.16,7.04 21.6,16.319999 28.32,27.839998 6.72,11.52 10.08,24.32 10.08,38.4 v 130.56004 c 0,11.52 -4.8,20.48 -14.4,26.88 -9.6,6.4 -19.84,8 -30.72,4.8 -10.88,-3.2 -22.24,-5.6 -34.08,-7.2 -11.84,-1.6 -23.84,-2.4 -36,-2.4 -74.24,0 -137.6,26.24 -190.08,78.72001 -52.48,52.48 -78.72,115.84 -78.72,190.08 v 19.68 c 0,6.08 0.64,11.68 1.92,16.8 2.56,16 -2.08,28.48 -13.92,37.44 -11.84,8.96 -24.16,9.92 -36.96,2.88 l -219.840005,-126.72 c -12.16,-7.04 -21.6,-16.32 -28.32,-27.84 -6.72,-11.52 -10.08,-24.32 -10.08,-38.4 z"
         id="path1-0-4-5-2-2"
         style="fill:#a78bfa;fill-opacity:1;stroke-width:0.96" /><path
         d="m 572.57477,709.97889 q -5.86446,0 -9.89648,-3.9748 -4.0331,-3.9748 -4.0331,-9.85058 V 565.38837 L 423.27205,400.63583 q -5.18434,-6.9127 -1.57794,-14.68948 3.5999,-7.77678 12.52276,-7.77678 h 304.15908 q 8.92285,0 12.52275,7.77678 3.6064,7.77678 -1.57793,14.68948 L 613.94763,565.38837 v 130.76514 q 0,5.87578 -3.96379,9.85058 -3.96921,3.9748 -9.82717,3.9748 z"
         id="path1-94-6"
         style="fill:#a78bfa;fill-opacity:1;stroke-width:0.576058" /></g></g></svg>
