<?xml version="1.0" encoding="UTF-8" standalone="no"?>
<svg
   height="15.999653"
   viewBox="0 -960 768 767.98333"
   width="16"
   fill="#f19e39"
   version="1.1"
   id="svg1"
   xml:space="preserve"
   xmlns="http://www.w3.org/2000/svg"
   xmlns:svg="http://www.w3.org/2000/svg"><defs
     id="defs1" /><g
     id="layer2"
     transform="translate(-21979.176,-946.04352)"><path
       fill="#f05133"
       d="M 9971.3564,335.82615 9636.0437,0.52995372 c -19.3069,-19.31520072 -50.6242,-19.31520072 -69.9477,0 l -69.6218,69.63850028 88.3185,88.318496 c 20.5271,-6.937 44.0631,-2.2817 60.4197,14.0832 16.4568,16.4652 21.0704,40.2018 13.9578,60.8041 l 85.1341,85.1258 c 20.6023,-7.1042 44.3557,-2.5074 60.8041,13.9662 22.9843,22.9843 22.9843,60.2274 0,83.2285 -23.0011,22.9927 -60.2441,22.9927 -83.2536,0 -17.2842,-17.301 -21.5635,-42.7092 -12.796,-64.0052 l -79.4006,-79.3923 v 208.9239 c 5.5998,2.7748 10.8904,6.469 15.5542,11.1327 22.9843,22.9844 22.9843,60.2275 0,83.2369 -22.9844,22.9761 -60.2525,22.9761 -83.2202,0 -22.9844,-23.0178 -22.9844,-60.2608 0,-83.2369 5.6834,-5.675 12.2611,-9.971 19.2818,-12.8461 v -210.8713 c -7.0207,-2.8751 -13.5817,-7.1293 -19.2818,-12.8461 -17.4096,-17.4013 -21.597,-42.9599 -12.6707,-64.3396 l -87.0648,-87.0815 -229.9274,229.9023 c -19.3152,19.3319 -19.3152,50.6492 0,69.9644 l 335.3296,335.3045 c 19.3069,19.3152 50.6158,19.3152 69.9477,0 l 333.7498,-333.7499 c 19.3154,-19.3152 19.3154,-50.6492 0,-69.9644 z"
       id="path1-74"
       style="stroke-width:8.35795"
       transform="translate(12761.333)" /></g></svg>
