<?xml version="1.0" encoding="UTF-8" standalone="no"?>
<svg
   height="12.651471"
   viewBox="0 -960 768 607.27061"
   width="16"
   fill="#f19e39"
   version="1.1"
   id="svg1"
   xml:space="preserve"
   xmlns="http://www.w3.org/2000/svg"
   xmlns:svg="http://www.w3.org/2000/svg"><defs
     id="defs1" /><g
     id="layer2"
     transform="translate(-22954.176,-1106.7562)"><g
       style="overflow:hidden;fill:#4bf3fd;fill-opacity:1"
       id="g1"
       transform="matrix(0.87117412,0,0,0.87117412,22892.16,4.3431898)"><path
         d="m 926.29333,237.22667 c -31.18933,-56.14934 -87.04,-72.96 -126.42133,-73.728 -48.34133,-0.98134 -88.10667,25.81333 -80.55467,43.392 1.57867,3.75466 10.66667,23.46666 16.21334,31.57333 8.10666,11.776 22.48533,2.77333 27.56266,0.0853 15.06134,-8.02133 31.14667,-10.66666 49.49334,-8.49066 17.45066,2.00533 40.704,12.8 56.27733,42.70933 36.65067,70.48533 -76.544,215.46667 -218.19733,115.072 -141.65334,-100.43733 -279.38134,-67.15733 -341.76,-46.93333 -62.37867,20.26666 -91.09334,40.61866 -66.38934,87.63733 33.49334,64 22.35734,44.37333 54.82667,97.28 51.62667,84.05333 164.48,-38.69867 164.48,-38.69867 -84.05333,123.98934 -156.16,94.03734 -183.85067,50.688 -24.91733,-39.04 -44.288,-84.096 -44.288,-84.096 C 20.650666,528.85333 78.293333,860.544 78.293333,860.544 H 184.10667 c 26.96533,-122.15467 123.392,-117.632 139.94666,0 H 404.736 c 71.424,-238.50667 252.37333,0 252.37333,0 h 105.216 c -29.44,-162.688 59.22134,-213.76 115.072,-309.16267 55.89334,-95.36 108.8,-212.05333 48.896,-314.19733 z M 654.848,551.296 c -55.63733,-18.176 -35.712,-73.51467 -35.712,-73.51467 0,0 48.59733,15.70134 114.34667,37.12 -3.84,17.19467 -36.52267,50.13334 -78.63467,36.39467 z"
         fill="#0097a7"
         id="path1-88"
         style="fill:#4bf3fd;fill-opacity:1" /></g></g></svg>
