<?xml version="1.0" encoding="UTF-8" standalone="no"?>
<svg
   height="17.777777"
   viewBox="0 -960 768 853.33328"
   width="16"
   fill="#f19e39"
   version="1.1"
   id="svg1"
   xml:space="preserve"
   xmlns="http://www.w3.org/2000/svg"
   xmlns:svg="http://www.w3.org/2000/svg"><defs
     id="defs1" /><g
     id="layer2"
     transform="translate(-3823.5166,-852.96393)"><path
       d="M 4164.8498,734.56397 3866.1831,562.83064 q -20.2667,-11.73333 -31.4667,-30.93333 -11.2,-19.2 -11.2,-42.66667 v -339.2 q 0,-23.46667 11.2,-42.66667 11.2,-19.2 31.4667,-30.93333 l 298.6667,-171.733335 q 20.2666,-11.733335 42.6666,-11.733335 22.4,0 42.6667,11.733335 L 4548.8498,76.43064 q 20.2666,11.73333 31.4666,30.93333 11.2,19.2 11.2,42.66667 v 339.2 q 0,23.46667 -11.2,42.66667 -11.2,19.2 -31.4666,30.93333 l -298.6667,171.73333 q -20.2667,11.73334 -42.6667,11.73334 -22.4,0 -42.6666,-11.73334 z m 0,-390.4 v 292.26667 l 42.6666,24.53333 42.6667,-24.53333 V 344.16397 l 256,-148.26666 v -44.8 l -45.8667,-26.66667 -252.8,146.13333 -252.8,-146.13333 -45.8666,26.66667 v 44.8 z"
       id="path1-65"
       style="fill:#a78bfa;fill-opacity:1;stroke-width:1.06667" /></g></svg>
