<?xml version="1.0" encoding="UTF-8" standalone="no"?>
<svg
   height="17.420395"
   viewBox="0 -960 706.63367 836.17895"
   width="14.721535"
   fill="#f19e39"
   version="1.1"
   id="svg1"
   xml:space="preserve"
   xmlns="http://www.w3.org/2000/svg"
   xmlns:svg="http://www.w3.org/2000/svg"><defs
     id="defs1" /><g
     id="layer5"
     transform="translate(-5814.001,-3632.853)"><g
       id="g24-3-2-4-9"
       transform="translate(5796,2763.6264)"
       style="fill:#4ade80;fill-opacity:1"><path
         d="m 363.60105,325.86685 c 7.04,0 13.76,-0.96 20.16,-2.88001 6.4,-1.92 12.48,-4.48 18.24,-7.68 l 194.88,-112.32004 c 8.96,-5.12 14.72,-12.96 17.28,-23.52 2.56,-10.56 1.28,-20.32 -3.84,-29.28 -5.12,-8.96 -12.8,-14.72 -23.04,-17.28 -10.24,-2.56 -19.84,-1.28 -28.8,3.84 l -194.88,112.32 -194.88,-112.32 c -8.96,-5.12 -18.56,-6.4 -28.8,-3.84 -10.24,2.56 -17.92,8.32 -23.04,17.28 -5.12,8.96 -6.24,18.72 -3.36,29.28 2.88,10.56 8.8,18.4 17.76,23.52 l 193.92,112.32004 c 5.76,3.2 11.84,5.76 18.24,7.68 6.4,1.92001 13.12,2.88001 20.16,2.88001 z m -345.600005,120 V 140.5868 c 0,-14.08 3.36,-26.88 10.08,-38.4 6.72,-11.519999 16.16,-20.799998 28.32,-27.839998 l 268.800005,-154.56 c 6.4,-3.2 12.64,-5.76 18.72,-7.68 6.08,-1.92 12.64,-2.88 19.68,-2.88 7.04,0 13.76,0.96 20.16,2.88 6.4,1.92 12.48,4.48 18.24,7.68 l 268.8,154.56 c 12.16,7.04 21.6,16.319999 28.32,27.839998 6.72,11.52 10.08,24.32 10.08,38.4 v 130.56004 c 0,11.52 -4.8,20.48 -14.4,26.88 -9.6,6.4 -19.84,8 -30.72,4.8 -10.88,-3.2 -22.24,-5.6 -34.08,-7.2 -11.84,-1.6 -23.84,-2.4 -36,-2.4 -74.24,0 -137.6,26.24 -190.08,78.72001 -52.48,52.48 -78.72,115.84 -78.72,190.08 v 19.68 c 0,6.08 0.64,11.68 1.92,16.8 2.56,16 -2.08,28.48 -13.92,37.44 -11.84,8.96 -24.16,9.92 -36.96,2.88 l -219.840005,-126.72 c -12.16,-7.04 -21.6,-16.32 -28.32,-27.84 -6.72,-11.52 -10.08,-24.32 -10.08,-38.4 z"
         id="path1-0-4-5-0-8-3"
         style="fill:#4ade80;fill-opacity:1;stroke-width:0.96" /><path
         d="M 532.93499,660.20551 V 486.6105 l -55.38,55.38 -29.82,-30.88501 106.5,-106.49999 106.49999,106.49999 -29.81999,30.88501 -55.38,-55.38 v 173.59501 z m -106.5,85.2 q -17.5725,0 -30.08625,-12.51373 -12.51375,-12.51382 -12.51375,-30.08627 v -63.90002 h 42.6 v 63.90002 h 255.59999 v -63.90002 h 42.60001 v 63.90002 q 0,17.57245 -12.51375,30.08627 -12.51375,12.51373 -30.08626,12.51373 z"
         id="path1-66"
         style="fill:#4ade80;fill-opacity:1;stroke-width:0.5325" /></g></g></svg>
