<?xml version="1.0" encoding="UTF-8" standalone="no"?>
<svg
   height="16.455309"
   viewBox="0 -960 768 789.85482"
   width="16"
   fill="#f19e39"
   version="1.1"
   id="svg1"
   xml:space="preserve"
   xmlns="http://www.w3.org/2000/svg"
   xmlns:svg="http://www.w3.org/2000/svg"><defs
     id="defs1" /><g
     id="layer2"
     transform="translate(-19557.338,-924.172)"><path
       d="m 14333.534,359.09944 c 0,-9.08336 -0.394,-17.7717 -1.185,-26.85506 l 73.457,-55.68481 c 15.797,-11.84788 20.141,-33.96375 10.267,-51.34065 l -73.852,-127.561431 c -9.872,-17.3769 -31.199,-24.48558 -49.366,-16.58707 l -84.909,35.938421 c -14.612,-10.26799 -30.014,-19.351351 -46.207,-26.855061 l -11.452,-91.2282103 c -2.368,-19.7463797 -19.353,-34.7535697 -39.097,-34.7535697 h -147.309 c -20.141,0 -37.123,15.00719 -39.492,34.7535697 l -11.454,91.2282103 c -16.191,7.50371 -31.593,16.587071 -46.207,26.855061 l -84.909,-35.938421 c -18.165,-7.89851 -39.491,-0.78983 -49.366,16.58707 l -73.852,127.956461 c -9.872,17.37667 -5.527,39.09774 10.269,51.34064 l 73.458,55.68459 c -0.791,8.68856 -1.186,17.3769 -1.186,26.46026 0,9.08336 0.395,17.7717 1.186,26.85506 l -73.458,55.68481 c -15.796,11.84765 -20.141,33.96375 -10.269,51.34042 l 73.852,127.56162 c 9.875,17.3767 31.201,24.4854 49.366,16.5869 l 84.909,-35.9384 c 14.614,10.2682 30.016,19.3515 46.207,26.855 l 11.454,91.2282 c 2.369,19.7464 19.351,34.7538 39.097,34.7538 h 147.307 c 19.747,0 36.729,-15.0074 39.1,-34.7538 l 11.452,-91.2282 c 16.193,-7.5035 31.595,-16.5868 46.206,-26.855 l 84.91,35.9384 c 18.167,7.8985 39.493,0.7898 49.366,-16.5869 l 73.851,-127.56162 c 9.873,-17.37667 5.53,-39.09774 -10.269,-51.34042 l -73.455,-55.68481 c 1.186,-9.08336 1.58,-17.7717 1.58,-26.85506 z m -294.616,138.22446 c -76.223,0 -138.226,-62.00344 -138.226,-138.22446 0,-76.22102 62.003,-138.22468 138.226,-138.22468 76.22,0 138.223,62.00366 138.223,138.22468 0,76.22102 -62.003,138.22446 -138.223,138.22446 z"
       id="path19-1"
       style="fill:#a6dce1;fill-opacity:1;stroke:none;stroke-width:39.4928;stroke-opacity:1"
       transform="translate(5904)" /></g></svg>
