<?xml version="1.0" encoding="UTF-8" standalone="no"?>
<svg
   height="17.587212"
   viewBox="0 -960 735.23621 844.18615"
   width="15.317421"
   fill="#f19e39"
   version="1.1"
   id="svg1"
   xml:space="preserve"
   xmlns="http://www.w3.org/2000/svg"
   xmlns:svg="http://www.w3.org/2000/svg"><defs
     id="defs1" /><g
     id="layer2"
     transform="translate(-1931.863,-869.8407)"><g
       id="g24-3-4"
       transform="translate(1913.862,0.61393172)"
       style="fill:#a78bfa;fill-opacity:1"><path
         d="m 363.60105,325.86685 c 7.04,0 13.76,-0.96 20.16,-2.88001 6.4,-1.92 12.48,-4.48 18.24,-7.68 l 194.88,-112.32004 c 8.96,-5.12 14.72,-12.96 17.28,-23.52 2.56,-10.56 1.28,-20.32 -3.84,-29.28 -5.12,-8.96 -12.8,-14.72 -23.04,-17.28 -10.24,-2.56 -19.84,-1.28 -28.8,3.84 l -194.88,112.32 -194.88,-112.32 c -8.96,-5.12 -18.56,-6.4 -28.8,-3.84 -10.24,2.56 -17.92,8.32 -23.04,17.28 -5.12,8.96 -6.24,18.72 -3.36,29.28 2.88,10.56 8.8,18.4 17.76,23.52 l 193.92,112.32004 c 5.76,3.2 11.84,5.76 18.24,7.68 6.4,1.92001 13.12,2.88001 20.16,2.88001 z m -345.600005,120 V 140.5868 c 0,-14.08 3.36,-26.88 10.08,-38.4 6.72,-11.519999 16.16,-20.799998 28.32,-27.839998 l 268.800005,-154.56 c 6.4,-3.2 12.64,-5.76 18.72,-7.68 6.08,-1.92 12.64,-2.88 19.68,-2.88 7.04,0 13.76,0.96 20.16,2.88 6.4,1.92 12.48,4.48 18.24,7.68 l 268.8,154.56 c 12.16,7.04 21.6,16.319999 28.32,27.839998 6.72,11.52 10.08,24.32 10.08,38.4 v 130.56004 c 0,11.52 -4.8,20.48 -14.4,26.88 -9.6,6.4 -19.84,8 -30.72,4.8 -10.88,-3.2 -22.24,-5.6 -34.08,-7.2 -11.84,-1.6 -23.84,-2.4 -36,-2.4 -74.24,0 -137.6,26.24 -190.08,78.72001 -52.48,52.48 -78.72,115.84 -78.72,190.08 v 19.68 c 0,6.08 0.64,11.68 1.92,16.8 2.56,16 -2.08,28.48 -13.92,37.44 -11.84,8.96 -24.16,9.92 -36.96,2.88 l -219.840005,-126.72 c -12.16,-7.04 -21.6,-16.32 -28.32,-27.84 -6.72,-11.52 -10.08,-24.32 -10.08,-38.4 z"
         id="path1-0-4-5-2"
         style="fill:#a78bfa;fill-opacity:1;stroke-width:0.96" /><path
         d="m 586.29641,753.41292 q -70.02237,0 -118.48157,-24.23448 -48.45919,-24.23445 -48.45919,-59.15292 V 461.55698 q 0,-34.3973 48.92291,-58.89235 48.92293,-24.49506 118.01785,-24.49506 69.09493,0 118.01785,24.49506 48.92292,24.49505 48.92292,58.89235 v 208.46854 q 0,34.91847 -48.4592,59.15292 -48.45918,24.23448 -118.48157,24.23448 z m 0,-249.64107 q 41.27147,0 83.00667,-13.28987 41.73519,-13.28986 46.83615,-28.40382 -5.10096,-15.11395 -46.6043,-28.66443 -41.50332,-13.55044 -83.23852,-13.55044 -42.19891,0 -82.77479,13.28986 -40.57588,13.28988 -47.06802,28.92501 6.49214,15.63513 47.06802,28.66442 40.57588,13.02927 82.77479,13.02927 z m 0,103.71309 q 19.47644,0 37.56169,-2.08468 18.08524,-2.08467 34.54745,-5.99349 16.46221,-3.90875 31.06953,-9.64166 14.60731,-5.73286 26.66415,-13.02927 V 514.1953 q -12.05684,7.29638 -26.66415,13.02928 -14.60732,5.73286 -31.06953,9.64166 -16.46221,3.90878 -34.54745,5.99347 -18.08525,2.08469 -37.56169,2.08469 -19.47641,0 -38.02539,-2.08469 -18.54899,-2.08469 -35.01119,-5.99347 -16.46222,-3.9088 -30.83768,-9.64166 -14.37545,-5.7329 -25.96855,-13.02928 v 62.54054 q 11.5931,7.29641 25.96855,13.02927 14.37546,5.73291 30.83768,9.64166 16.4622,3.90882 35.01119,5.99349 18.54898,2.08468 38.02539,2.08468 z m 0,104.23427 q 21.33131,0 43.35823,-3.6482 22.02691,-3.64821 40.57589,-9.64168 18.54896,-5.99345 31.06951,-13.55045 12.52056,-7.55698 14.83919,-15.37455 v -51.07478 q -12.05684,7.29639 -26.66415,13.02929 -14.60732,5.73285 -31.06953,9.64166 -16.46221,3.90879 -34.54745,5.99346 -18.08525,2.08469 -37.56169,2.08469 -19.47641,0 -38.02539,-2.08469 -18.54899,-2.08467 -35.01119,-5.99346 -16.46222,-3.90881 -30.83768,-9.64166 -14.37545,-5.7329 -25.96855,-13.02929 v 51.59597 q 2.31863,7.81755 14.6073,15.11395 12.28871,7.29641 30.83768,13.28986 18.54899,5.99347 40.80775,9.64168 22.25878,3.6482 43.59008,3.6482 z"
         id="path1-7-2"
         style="display:inline;fill:#a78bfa;fill-opacity:1;stroke-width:0.49161" /></g></g></svg>
