<?xml version="1.0" encoding="UTF-8" standalone="no"?>
<svg
   height="17.777775"
   viewBox="0 -960 768 853.33319"
   width="16"
   fill="#f19e39"
   version="1.1"
   id="svg1"
   xml:space="preserve"
   xmlns="http://www.w3.org/2000/svg"
   xmlns:svg="http://www.w3.org/2000/svg"><defs
     id="defs1" /><g
     id="layer2"
     transform="translate(-2874.1077,-872.42688)"><path
       d="m 3215.4411,754.02685 -298.6667,-171.7333 q -20.2667,-11.7334 -31.4667,-30.9334 -11.2,-19.2 -11.2,-42.6666 V 169.4935 q 0,-23.46667 11.2,-42.66667 11.2,-19.2 31.4667,-30.933327 l 298.6667,-171.73333 q 20.2666,-11.73334 42.6666,-11.73334 22.4,0 42.6667,11.73334 l 298.6667,171.73333 q 20.2666,11.733327 31.4666,30.933327 11.2,19.2 11.2,42.66667 v 339.20005 q 0,23.4666 -11.2,42.6666 -11.2,19.2 -31.4666,30.9334 l -298.6667,171.7333 q -20.2667,11.7333 -42.6667,11.7333 -22.4,0 -42.6666,-11.7333 z m 0,-390.40002 v 292.26672 l 42.6666,24.5333 42.6667,-24.5333 V 363.62683 l 256,-148.26666 v -44.8 l -45.8667,-26.66667 -252.8,146.13333 -252.8,-146.13333 -45.8666,26.66667 v 44.8 z"
       id="path1-65-5"
       style="fill:#3b82f6;fill-opacity:1;stroke-width:1.06667" /></g></svg>
