<?xml version="1.0" encoding="UTF-8" standalone="no"?>
<svg
   height="12.799999"
   viewBox="0 -960 768 614.39996"
   width="16"
   fill="#f19e39"
   version="1.1"
   id="svg1"
   xml:space="preserve"
   xmlns="http://www.w3.org/2000/svg"
   xmlns:svg="http://www.w3.org/2000/svg"><defs
     id="defs1" /><g
     id="layer2"
     transform="translate(-26962.693,-1099.627)"><g
       style="fill:#e3e3e3;fill-opacity:0.6"
       id="g2"
       transform="matrix(0.96,0,0,0.96,26885.894,907.62685)"><path
         d="m 160,-160 q -33,0 -56.5,-23.5 Q 80,-207 80,-240 v -480 q 0,-33 23.5,-56.5 Q 127,-800 160,-800 h 640 q 33,0 56.5,23.5 23.5,23.5 23.5,56.5 v 480 q 0,33 -23.5,56.5 Q 833,-160 800,-160 Z m 0,-80 H 800 V -640 H 160 Z m 187,-200 -76,-76 q -12,-12 -11.5,-28 0.5,-16 12.5,-28 12,-11 28,-11.5 16,-0.5 28,11.5 l 104,104 q 12,12 12,28 0,16 -12,28 l -104,104 q -11,11 -27.5,11.5 -16.5,0.5 -28.5,-11.5 -11,-11 -11,-28 0,-17 11,-28 z m 173,160 q -17,0 -28.5,-11.5 Q 480,-303 480,-320 q 0,-17 11.5,-28.5 Q 503,-360 520,-360 h 160 q 17,0 28.5,11.5 11.5,11.5 11.5,28.5 0,17 -11.5,28.5 Q 697,-280 680,-280 Z"
         id="path1-19"
         style="fill:#e3e3e3;fill-opacity:0.6" /></g></g></svg>
