<?xml version="1.0" encoding="UTF-8" standalone="no"?>
<svg
   height="15.949486"
   viewBox="0 -960 768 765.57531"
   width="16"
   fill="#f19e39"
   version="1.1"
   id="svg1"
   xml:space="preserve"
   xmlns="http://www.w3.org/2000/svg"
   xmlns:svg="http://www.w3.org/2000/svg"><defs
     id="defs1" /><g
     id="layer2"
     transform="translate(-8102.4336,-908.96979)"><g
       style="fill:#60a5fa;fill-opacity:1"
       id="g26"
       transform="matrix(1.0632989,0,0,1.0632989,7976.0501,842.14089)"><path
         d="m 200,-120 q -51,0 -72.5,-45.5 Q 106,-211 138,-250 l 222,-270 v -240 h -40 q -17,0 -28.5,-11.5 Q 280,-783 280,-800 q 0,-17 11.5,-28.5 Q 303,-840 320,-840 h 320 q 17,0 28.5,11.5 11.5,11.5 11.5,28.5 0,17 -11.5,28.5 Q 657,-760 640,-760 h -40 v 240 l 222,270 q 32,39 10.5,84.5 Q 811,-120 760,-120 Z m 80,-120 H 680 L 544,-400 H 416 Z m -80,40 H 760 L 520,-492 v -268 h -80 v 268 z m 280,-280 z"
         id="path1-2"
         style="fill:#60a5fa;fill-opacity:1" /></g></g></svg>
