<?xml version="1.0" encoding="UTF-8" standalone="no"?>
<svg
   height="17.58721"
   viewBox="0 -960 722.5459 844.18606"
   width="15.05304"
   fill="#f19e39"
   version="1.1"
   id="svg1"
   xml:space="preserve"
   xmlns="http://www.w3.org/2000/svg"
   xmlns:svg="http://www.w3.org/2000/svg"><defs
     id="defs1" /><g
     id="layer1"
     transform="translate(-13396.701,-867.89197)"><g
       id="g20"
       transform="translate(5904)"
       style="fill:#a6dce1;fill-opacity:1;stroke:none;stroke-opacity:1"><path
         d="m 19.636558,11.859856 c 0,-0.23 -0.01,-0.45 -0.03,-0.68 l 1.86,-1.4100001 c 0.4,-0.3 0.51,-0.86 0.26,-1.3 l -1.87,-3.23 c -0.25,-0.44 -0.79,-0.62 -1.25,-0.42 l -2.15,0.91 c -0.37,-0.26 -0.76,-0.49 -1.17,-0.68 l -0.29,-2.31 c -0.06,-0.5 -0.49,-0.88 -0.99,-0.88 h -3.73 c -0.5100001,0 -0.9400001,0.38 -1.0000001,0.88 l -0.29,2.31 c -0.41,0.19 -0.8,0.42 -1.17,0.68 l -2.15,-0.91 c -0.46,-0.2 -1,-0.02 -1.25,0.42 l -1.87,3.24 c -0.25,0.44 -0.14,0.99 0.26,1.3 l 1.86,1.4100001 c -0.02,0.22 -0.03,0.44 -0.03,0.67 0,0.23 0.01,0.45 0.03,0.68 l -1.86,1.41 c -0.4,0.3 -0.51,0.86 -0.26,1.3 l 1.87,3.23 c 0.25,0.44 0.79,0.62 1.25,0.42 l 2.15,-0.91 c 0.37,0.26 0.76,0.49 1.17,0.68 l 0.29,2.31 c 0.06,0.5 0.49,0.88 0.9900001,0.88 h 3.73 c 0.5,0 0.93,-0.38 0.99,-0.88 l 0.29,-2.31 c 0.41,-0.19 0.8,-0.42 1.17,-0.68 l 2.15,0.91 c 0.46,0.2 1,0.02 1.25,-0.42 l 1.87,-3.23 c 0.25,-0.44 0.14,-0.99 -0.26,-1.3 l -1.86,-1.41 c 0.03,-0.23 0.04,-0.45 0.04,-0.68 z m -7.46,3.5 c -1.93,0 -3.5000001,-1.57 -3.5000001,-3.5 0,-1.9300001 1.5700001,-3.5000001 3.5000001,-3.5000001 1.93,0 3.5,1.57 3.5,3.5000001 0,1.93 -1.57,3.5 -3.5,3.5 z"
         id="path19"
         style="fill:#a6dce1;fill-opacity:1;stroke:none;stroke-opacity:1"
         transform="matrix(17.325588,0,0,17.325588,389.2651,-724.29736)" /><path
         d="m 14333.534,359.09944 c 0,-9.08336 -0.394,-17.7717 -1.185,-26.85506 l 73.457,-55.68481 c 15.797,-11.84788 20.141,-33.96375 10.267,-51.34065 l -73.852,-127.561431 c -9.872,-17.3769 -31.199,-24.48558 -49.366,-16.58707 l -84.909,35.938421 c -14.612,-10.26799 -30.014,-19.351351 -46.207,-26.855061 l -11.452,-91.2282103 c -2.368,-19.7463797 -19.353,-34.7535697 -39.097,-34.7535697 h -147.309 c -20.141,0 -37.123,15.00719 -39.492,34.7535697 l -11.454,91.2282103 c -16.191,7.50371 -31.593,16.587071 -46.207,26.855061 l -84.909,-35.938421 c -18.165,-7.89851 -39.491,-0.78983 -49.366,16.58707 l -73.852,127.956461 c -9.872,17.37667 -5.527,39.09774 10.269,51.34064 l 73.458,55.68459 c -0.791,8.68856 -1.186,17.3769 -1.186,26.46026 0,9.08336 0.395,17.7717 1.186,26.85506 l -73.458,55.68481 c -15.796,11.84765 -20.141,33.96375 -10.269,51.34042 l 73.852,127.56162 c 9.875,17.3767 31.201,24.4854 49.366,16.5869 l 84.909,-35.9384 c 14.614,10.2682 30.016,19.3515 46.207,26.855 l 11.454,91.2282 c 2.369,19.7464 19.351,34.7538 39.097,34.7538 h 147.307 c 19.747,0 36.729,-15.0074 39.1,-34.7538 l 11.452,-91.2282 c 16.193,-7.5035 31.595,-16.5868 46.206,-26.855 l 84.91,35.9384 c 18.167,7.8985 39.493,0.7898 49.366,-16.5869 l 73.851,-127.56162 c 9.873,-17.37667 5.53,-39.09774 -10.269,-51.34042 l -73.455,-55.68481 c 1.186,-9.08336 1.58,-17.7717 1.58,-26.85506 z m -294.616,138.22446 c -76.223,0 -138.226,-62.00344 -138.226,-138.22446 0,-76.22102 62.003,-138.22468 138.226,-138.22468 76.22,0 138.223,62.00366 138.223,138.22468 0,76.22102 -62.003,138.22446 -138.223,138.22446 z"
         id="path19-1"
         style="fill:#a6dce1;fill-opacity:1;stroke:none;stroke-width:39.4928;stroke-opacity:1" /><path
         id="path17"
         style="display:inline;fill:#a6dce1;fill-opacity:1;stroke:none;stroke-opacity:1"
         d="m 159.98047,-800 c -22,0 -40.77864,7.86849 -56.44531,23.53516 C 87.868489,-760.79817 80,-742.01953 80,-720.01953 v 479.98047 c 0,22 7.868489,40.87629 23.53516,56.54296 15.66667,15.66667 34.44531,23.53516 56.44531,23.53516 h 402.47562 c -1.47453,-2.32687 -4.44845,-3.12982 -6.57954,-4.75138 -53.83134,-40.96085 -68.37008,-105.76488 -68.35702,-174.83846 -0.0131,-120.18631 97.39182,-217.63495 217.57812,-217.67578 68.94619,-0.0282 133.82843,32.61219 174.90235,87.98828 v -170.80078 c 0,-22 -7.86849,-40.77865 -23.53516,-56.44532 -15.66667,-15.66667 -34.44531,-23.53515 -56.44531,-23.53515 H 480 L 400.01953,-800 Z m 694.6289,618.26172 c -1.79616,1.62537 -3.61933,3.22064 -5.46875,4.78515 1.87656,-1.49842 3.67282,-3.08728 5.46875,-4.78515 z"
         transform="matrix(0.96,0,0,0.96,-76.800016,-192)" /></g></g><g
     id="layer2"
     transform="translate(-13396.701,-867.89197)"><g
       id="g24-3-4-8"
       transform="translate(13378.7,-1.3348183)"
       style="fill:#3b82f6;fill-opacity:1"><path
         d="m 363.60105,325.86685 c 7.04,0 13.76,-0.96 20.16,-2.88001 6.4,-1.92 12.48,-4.48 18.24,-7.68 l 194.88,-112.32004 c 8.96,-5.12 14.72,-12.96 17.28,-23.52 2.56,-10.56 1.28,-20.32 -3.84,-29.28 -5.12,-8.96 -12.8,-14.72 -23.04,-17.28 -10.24,-2.56 -19.84,-1.28 -28.8,3.84 l -194.88,112.32 -194.88,-112.32 c -8.96,-5.12 -18.56,-6.4 -28.8,-3.84 -10.24,2.56 -17.92,8.32 -23.04,17.28 -5.12,8.96 -6.24,18.72 -3.36,29.28 2.88,10.56 8.8,18.4 17.76,23.52 l 193.92,112.32004 c 5.76,3.2 11.84,5.76 18.24,7.68 6.4,1.92001 13.12,2.88001 20.16,2.88001 z m -345.600005,120 V 140.5868 c 0,-14.08 3.36,-26.88 10.08,-38.4 6.72,-11.519999 16.16,-20.799998 28.32,-27.839998 l 268.800005,-154.56 c 6.4,-3.2 12.64,-5.76 18.72,-7.68 6.08,-1.92 12.64,-2.88 19.68,-2.88 7.04,0 13.76,0.96 20.16,2.88 6.4,1.92 12.48,4.48 18.24,7.68 l 268.8,154.56 c 12.16,7.04 21.6,16.319999 28.32,27.839998 6.72,11.52 10.08,24.32 10.08,38.4 v 130.56004 c 0,11.52 -4.8,20.48 -14.4,26.88 -9.6,6.4 -19.84,8 -30.72,4.8 -10.88,-3.2 -22.24,-5.6 -34.08,-7.2 -11.84,-1.6 -23.84,-2.4 -36,-2.4 -74.24,0 -137.6,26.24 -190.08,78.72001 -52.48,52.48 -78.72,115.84 -78.72,190.08 v 19.68 c 0,6.08 0.64,11.68 1.92,16.8 2.56,16 -2.08,28.48 -13.92,37.44 -11.84,8.96 -24.16,9.92 -36.96,2.88 l -219.840005,-126.72 c -12.16,-7.04 -21.6,-16.32 -28.32,-27.84 -6.72,-11.52 -10.08,-24.32 -10.08,-38.4 z"
         id="path1-0-4-5-2-8"
         style="fill:#3b82f6;fill-opacity:1;stroke-width:0.96" /><path
         d="m 586.29641,753.41292 q -2.96629,0 -5.93269,-0.24719 -2.96629,-0.24719 -5.43832,-1.23598 Q 510.16014,730.6709 471.10317,673.32145 432.0462,615.97201 432.0462,548.24034 v -88.99052 q 0,-11.37102 6.17987,-20.27006 6.17997,-8.89905 16.56214,-12.85419 l 118.6541,-45.48404 q 6.42705,-2.47196 12.8541,-2.47196 6.42715,0 12.8542,2.47196 l 118.6541,45.48404 q 10.38217,3.95514 16.56203,12.85419 6.17998,8.89904 6.17998,20.27006 v 88.99052 q 0,67.73167 -39.05697,125.08111 -39.05697,57.34945 -103.82223,78.6083 -2.47203,0.98879 -5.43832,1.23598 -2.9664,0.24719 -5.93279,0.24719 z"
         id="path1-84-9"
         style="fill:#3b82f6;fill-opacity:1;stroke-width:0.494392" /></g></g></svg>
