<?xml version="1.0" encoding="UTF-8" standalone="no"?>
<svg
   height="14.508678"
   viewBox="0 -960 768 696.41656"
   width="16"
   fill="#f19e39"
   version="1.1"
   id="svg1"
   xml:space="preserve"
   xmlns="http://www.w3.org/2000/svg"
   xmlns:svg="http://www.w3.org/2000/svg"><defs
     id="defs1" /><g
     id="layer4"
     transform="translate(-10986.001,-2940.1506)"><g
       id="g4-2-3-6"
       transform="translate(10987.179,-1.2062483)"
       style="fill:#ff85f5;fill-opacity:1"><path
         d="m 289.085,2171.8738 v 237.24 c 0,109.5267 68.539,207.5171 171.551,244.8404 l 37.595,13.7078 c 19.136,6.9217 40.173,6.9217 59.31,0 l 37.73,-13.5721 c 103.01203,-37.459 171.55103,-135.3137 171.55103,-244.9761 v -237.24 c 0,-9.3647 -2.85,-18.7294 -9.5,-25.244 -30.673,-30.5372 -106.134,-76.0037 -229.36803,-76.0037 -123.235,0 -198.696,45.6022 -229.369,76.0037 -6.65,6.6503 -9.5,15.8793 -9.5,25.244 z m 89.711,253.9337 c -1.9,-9.5005 9.501,-14.9293 17.237,-8.9576 36.509,27.9585 82.247,44.6521 131.921,44.6521 49.673,0 95.276,-16.6936 131.92003,-44.6521 7.736,-5.9717 19.137,-0.5429 17.237,8.9576 -13.708,69.7605 -75.32503,122.5559 -149.15703,122.5559 -73.833,0 -135.45,-52.6597 -149.158,-122.5559 z m 0.679,-137.7566 c 8.958,-25.5156 33.116,-43.8379 61.617,-43.8379 28.502,0 52.796,18.3223 61.617,43.8379 3.936,11.4005 -6.107,21.3081 -18.186,21.3081 h -86.861 c -11.944,0 -22.123,-10.0433 -18.187,-21.3081 z m 278.77103,21.3081 H 571.384 c -11.943,0 -22.122,-10.0433 -18.186,-21.3081 8.821,-25.5156 33.115,-43.8379 61.617,-43.8379 28.501,0 52.79503,18.3223 61.61703,43.8379 3.936,11.4005 -6.107,21.3081 -18.186,21.3081 z"
         id="path1-171-79-4-5"
         style="fill:#ff85f5;fill-opacity:1;stroke-width:1.35721" /><path
         d="m 557.541,2667.662 37.73,-13.5721 c 103.01203,-37.459 171.55103,-135.3137 171.55103,-244.9761 v -237.24 c 0,-9.3647 -2.85,-18.7294 -9.5,-25.244 -30.673,-30.5372 -106.134,-76.0037 -229.36803,-76.0037 0,261.75 0,477.7373 -0.002,603.4334 -1.7e-4,9.954 19.80981,-2.8604 29.58912,-6.3975 z M 658.24603,2309.359 H 571.384 c -11.943,0 -22.122,-10.0433 -18.186,-21.3081 8.821,-25.5156 33.115,-43.8379 61.617,-43.8379 28.501,0 52.79503,18.3223 61.61703,43.8379 3.936,11.4005 -6.107,21.3081 -18.186,21.3081 z"
         id="path1-171-7-5-1-0"
         style="fill:#d739cb;fill-opacity:0.500671;stroke-width:1.35721" /><path
         d="M 1.9980969e-7,2143.7789 38.679994,2363.2394 c 19.000997,107.898 103.554986,192.4521 211.452966,211.453 l 17.237,2.9859 c -22.394,-38.8162 -36.781,-82.3826 -41.531,-128.2562 l -32.70899,5.836 c -13.165,2.3072 -25.515,-7.8718 -22.937,-21.0367 6.515,-33.5231 25.923,-63.2459 53.88199,-82.654 v -101.2476 c -1.9,1.0857 -4.072,1.7643 -6.379,2.1715 l -85.50398,15.065 c -11.808,2.0358 -23.48,-5.9717 -21.58,-17.7794 4.207,-26.6013 24.973,-48.8595 53.06699,-53.8812 23.344,-4.0716 46.009,4.7503 60.53099,21.4439 v -30.8086 c 0,-30.5372 9.365,-71.1177 43.838,-99.6191 35.28799,-29.18 91.88298,-59.5814 169.51497,-73.5607 -41.39399,-22.1225 -117.12698,-43.4306 -222.30997,-24.9726 -108.98398,19.2724 -173.722967,67.9961 -203.716962,103.2835 -12.21499768,14.2507 -14.6579973,33.7945 -11.40099781,52.2526 z"
         style="display:inline;fill:#aa4da0;fill-opacity:1;stroke-width:1.35721"
         id="path1-61-4-1-2" /></g></g></svg>
