<?xml version="1.0" encoding="UTF-8" standalone="no"?>
<svg
   height="12.8"
   viewBox="0 -960 767.99927 614.40001"
   width="15.999985"
   fill="#f19e39"
   version="1.1"
   id="svg1"
   xml:space="preserve"
   xmlns="http://www.w3.org/2000/svg"
   xmlns:svg="http://www.w3.org/2000/svg"><defs
     id="defs1" /><g
     id="layer1"
     transform="translate(-9502.5039,-0.0375)"><g
       id="g27"><path
         d="m 9579.3023,-345.5625 q -31.68,0 -54.24,-22.56 -22.559,-22.56 -22.559,-54.24 v -460.8 q 0,-31.68 22.559,-54.24 22.561,-22.56 54.24,-22.56 h 198.721 q 15.36,0 29.28,5.76 13.92,5.76 24.48,16.32 l 54.72,54.72 h 307.1997 q 31.68,0 54.24,22.56 22.56,22.56 22.56,54.24 v 384 q 0,31.68 -22.56,54.24 -22.56,22.56 -54.24,22.56 z"
         id="path1-603-2"
         style="fill:#22c55e;fill-opacity:1;stroke-width:0.96" /><path
         d="m 10017.6,-391.08499 q -18.5224,0 -37.3259,-4.20974 -18.8036,-4.20972 -38.449,-12.06791 6.7356,-67.91711 39.2909,-126.85344 32.555,-58.93633 83.634,-103.84019 -61.743,31.43271 -106.9279,83.07217 -45.1844,51.63945 -63.1461,117.87265 -2.2452,-1.68389 -4.2097,-3.64843 l -4.2097,-4.20974 q -26.381,-26.38103 -40.1329,-58.93633 -13.7518,-32.55531 -13.7518,-67.91711 0,-38.16829 15.1551,-72.9688 15.1551,-34.80049 42.0974,-61.74281 39.2909,-39.29088 97.3853,-55.00724 58.0943,-15.71636 156.8833,-11.22597 14.593,0.5613 26.942,6.45493 12.348,5.89364 21.891,15.43572 9.542,9.54206 15.155,22.17128 5.613,12.62921 6.735,27.22296 3.368,101.03372 -11.787,157.72483 -15.155,56.69114 -53.885,95.42073 -27.503,27.50363 -61.462,42.37803 -33.958,14.87441 -69.882,14.87441 z"
         id="path1-4"
         style="fill:#fffff0;fill-opacity:1;stroke-width:0.561298" /></g></g></svg>
