<?xml version="1.0" encoding="UTF-8" standalone="no"?>
<svg
   height="12.800781"
   viewBox="0 -960 768 614.4375"
   width="16"
   fill="#f19e39"
   version="1.1"
   id="svg1"
   xml:space="preserve"
   xmlns="http://www.w3.org/2000/svg"
   xmlns:svg="http://www.w3.org/2000/svg"><defs
     id="defs1" /><g
     id="layer1"
     transform="translate(-5904)"><g
       id="g20"
       transform="translate(5904)"
       style="fill:#a6dce1;fill-opacity:1;stroke:none;stroke-opacity:1"><g
         style="display:inline;fill:#a6dce1;fill-opacity:1;stroke:none;stroke-opacity:1"
         id="g18"
         transform="matrix(0.96,0,0,0.96,-76.8,-192)"><path
           id="path17"
           style="fill:#a6dce1;fill-opacity:1;stroke:none;stroke-opacity:1"
           d="m 159.98047,-800 c -22,0 -40.77864,7.86849 -56.44531,23.53516 C 87.868489,-760.79817 80,-742.01953 80,-720.01953 v 479.98047 c 0,22 7.868489,40.87629 23.53516,56.54296 15.66667,15.66667 34.44531,23.53516 56.44531,23.53516 h 402.47562 c -1.47453,-2.32687 -4.44845,-3.12982 -6.57954,-4.75138 -53.83134,-40.96085 -68.37008,-105.76488 -68.35702,-174.83846 -0.0131,-120.18631 97.39182,-217.63495 217.57812,-217.67578 68.94619,-0.0282 133.82843,32.61219 174.90235,87.98828 v -170.80078 c 0,-22 -7.86849,-40.77865 -23.53516,-56.44532 -15.66667,-15.66667 -34.44531,-23.53515 -56.44531,-23.53515 H 480 L 400.01953,-800 Z m 694.6289,618.26172 c -1.79616,1.62537 -3.61933,3.22064 -5.46875,4.78515 1.87656,-1.49842 3.67282,-3.08728 5.46875,-4.78515 z" /></g><g
         id="g19"
         transform="matrix(17.325588,0,0,17.325588,389.26515,-724.29736)"
         style="fill:#a6dce1;fill-opacity:1;stroke:none;stroke-opacity:1"><path
           d="m 19.636558,11.859856 c 0,-0.23 -0.01,-0.45 -0.03,-0.68 l 1.86,-1.4100001 c 0.4,-0.3 0.51,-0.86 0.26,-1.3 l -1.87,-3.23 c -0.25,-0.44 -0.79,-0.62 -1.25,-0.42 l -2.15,0.91 c -0.37,-0.26 -0.76,-0.49 -1.17,-0.68 l -0.29,-2.31 c -0.06,-0.5 -0.49,-0.88 -0.99,-0.88 h -3.73 c -0.5100001,0 -0.9400001,0.38 -1.0000001,0.88 l -0.29,2.31 c -0.41,0.19 -0.8,0.42 -1.17,0.68 l -2.15,-0.91 c -0.46,-0.2 -1,-0.02 -1.25,0.42 l -1.87,3.24 c -0.25,0.44 -0.14,0.99 0.26,1.3 l 1.86,1.4100001 c -0.02,0.22 -0.03,0.44 -0.03,0.67 0,0.23 0.01,0.45 0.03,0.68 l -1.86,1.41 c -0.4,0.3 -0.51,0.86 -0.26,1.3 l 1.87,3.23 c 0.25,0.44 0.79,0.62 1.25,0.42 l 2.15,-0.91 c 0.37,0.26 0.76,0.49 1.17,0.68 l 0.29,2.31 c 0.06,0.5 0.49,0.88 0.9900001,0.88 h 3.73 c 0.5,0 0.93,-0.38 0.99,-0.88 l 0.29,-2.31 c 0.41,-0.19 0.8,-0.42 1.17,-0.68 l 2.15,0.91 c 0.46,0.2 1,0.02 1.25,-0.42 l 1.87,-3.23 c 0.25,-0.44 0.14,-0.99 -0.26,-1.3 l -1.86,-1.41 c 0.03,-0.23 0.04,-0.45 0.04,-0.68 z m -7.46,3.5 c -1.93,0 -3.5000001,-1.57 -3.5000001,-3.5 0,-1.9300001 1.5700001,-3.5000001 3.5000001,-3.5000001 1.93,0 3.5,1.57 3.5,3.5000001 0,1.93 -1.57,3.5 -3.5,3.5 z"
           id="path19"
           style="fill:#a6dce1;fill-opacity:1;stroke:none;stroke-opacity:1" /></g></g></g></svg>
