<?xml version="1.0" encoding="UTF-8" standalone="no"?>
<svg
   height="12.800781"
   viewBox="0 -960 768 614.4375"
   width="16"
   fill="#f19e39"
   version="1.1"
   id="svg1"
   xml:space="preserve"
   xmlns="http://www.w3.org/2000/svg"
   xmlns:svg="http://www.w3.org/2000/svg"><defs
     id="defs1" /><g
     id="layer1"
     transform="translate(-4818)"><g
       id="g16"
       transform="translate(4818)"
       style="fill:#bbf7d0;fill-opacity:1"><path
         id="path15"
         style="display:inline;fill:#bbf7d0;fill-opacity:1"
         d="m 159.98047,-800 c -22,0 -40.77864,7.86849 -56.44531,23.53516 C 87.868489,-760.79817 80,-742.01953 80,-720.01953 v 479.98047 c 0,22 7.868489,40.87629 23.53516,56.54296 15.66667,15.66667 34.44531,23.53516 56.44531,23.53516 h 402.47562 c -1.47453,-2.32687 -4.44845,-3.12982 -6.57954,-4.75138 -53.83134,-40.96085 -68.37008,-105.76488 -68.35702,-174.83846 -0.0229,-210.017 269.63132,-295.31341 392.48047,-129.6875 v -170.80078 c 0,-22 -7.86849,-40.77865 -23.53516,-56.44532 -15.66667,-15.66667 -34.44531,-23.53515 -56.44531,-23.53515 H 480 L 400.01953,-800 Z m 694.6289,618.26172 c -1.79616,1.62537 -3.61933,3.22064 -5.46875,4.78515 1.87656,-1.49842 3.67282,-3.08728 5.46875,-4.78515 z"
         transform="matrix(0.96,0,0,0.96,-76.800002,-192)" /><path
         d="m 690.38501,-345.5625 q -20.60813,0 -35.03382,-14.42569 -14.42568,-14.42568 -14.42568,-35.03381 0,-2.47296 1.23649,-11.54054 l -115.81763,-67.59462 q -6.59458,6.18243 -15.25,9.68582 -8.6554,3.50337 -18.54731,3.50337 -20.60811,0 -35.0338,-14.42568 -14.42567,-14.42568 -14.42567,-35.0338 0,-20.60812 14.42567,-35.03381 14.42569,-14.42567 35.0338,-14.42567 9.89191,0 18.54731,3.50338 8.65542,3.50339 15.25,9.68582 L 642.162,-614.29237 q -0.82432,-2.88513 -1.03041,-5.56418 -0.20608,-2.67906 -0.20608,-5.97636 0,-20.60812 14.42568,-35.03381 14.42569,-14.42567 35.03382,-14.42567 20.60814,0 35.03375,14.42567 14.42569,14.42569 14.42569,35.03381 0,20.60813 -14.42569,35.0338 -14.42561,14.42568 -35.03375,14.42568 -9.89191,0 -18.54733,-3.50337 -8.6554,-3.50339 -15.24999,-9.68582 L 540.77006,-521.968 q 0.82433,2.88514 1.0304,5.5642 0.20609,2.67906 0.20609,5.97635 0,3.2973 -0.20609,5.97636 -0.20607,2.67906 -1.0304,5.56418 l 115.81763,67.59464 q 6.59459,-6.18244 15.24999,-9.68582 8.65542,-3.50338 18.54733,-3.50338 20.60814,0 35.03375,14.42568 14.42569,14.42568 14.42569,35.03379 0,20.60813 -14.42569,35.03381 -14.42561,14.42569 -35.03375,14.42569 z m 0,-32.973 q 7.00672,0 11.74663,-4.73986 4.73983,-4.73987 4.73983,-11.74664 0,-7.00675 -4.73983,-11.74662 -4.73991,-4.73986 -11.74663,-4.73986 -7.00677,0 -11.74664,4.73986 -4.73987,4.73987 -4.73987,11.74662 0,7.00677 4.73987,11.74664 4.73987,4.73986 11.74664,4.73986 z M 492.54706,-493.94096 q 7.00676,0 11.74663,-4.73986 4.73988,-4.73987 4.73988,-11.74663 0,-7.00676 -4.73988,-11.74662 -4.73987,-4.73987 -11.74663,-4.73987 -7.00675,0 -11.74662,4.73987 -4.73987,4.73986 -4.73987,11.74662 0,7.00676 4.73987,11.74663 4.73987,4.73986 11.74662,4.73986 z m 209.58458,-120.14532 q 4.73983,-4.73987 4.73983,-11.74663 0,-7.00675 -4.73983,-11.74662 -4.73991,-4.73988 -11.74663,-4.73988 -7.00677,0 -11.74664,4.73988 -4.73987,4.73987 -4.73987,11.74662 0,7.00676 4.73987,11.74663 4.73987,4.73987 11.74664,4.73987 7.00672,0 11.74663,-4.73987 z M 690.38501,-395.022 Z M 492.54706,-510.42745 Z m 197.83795,-115.40546 z"
         id="path1-79"
         style="fill:#bbf7d0;fill-opacity:1;stroke-width:0.412162" /></g></g></svg>
