<?xml version="1.0" encoding="UTF-8" standalone="no"?>
<svg
   height="12.800781"
   viewBox="0 -960 768 614.4375"
   width="16"
   fill="#f19e39"
   version="1.1"
   id="svg1"
   xml:space="preserve"
   xmlns="http://www.w3.org/2000/svg"
   xmlns:svg="http://www.w3.org/2000/svg"><defs
     id="defs1" /><g
     id="layer1"
     transform="translate(-6966)"><g
       id="g21"
       transform="translate(6966)"
       style="fill:#fca5a5;fill-opacity:1"><path
         id="path20"
         style="display:inline;fill:#fca5a5;fill-opacity:1"
         d="m 159.98047,-800 c -22,0 -40.77864,7.86849 -56.44531,23.53516 C 87.868489,-760.79817 80,-742.01953 80,-720.01953 v 479.98047 c 0,22 7.868489,40.87629 23.53516,56.54296 15.66667,15.66667 34.44531,23.53516 56.44531,23.53516 h 402.47562 c -1.47453,-2.32687 -4.44845,-3.12982 -6.57954,-4.75138 -53.83134,-40.96085 -68.37008,-105.76488 -68.35702,-174.83846 -0.0131,-120.18631 97.39182,-217.63495 217.57812,-217.67578 68.94619,-0.0282 133.82843,32.61219 174.90235,87.98828 v -170.80078 c 0,-22 -7.86849,-40.77865 -23.53516,-56.44532 -15.66667,-15.66667 -34.44531,-23.53515 -56.44531,-23.53515 H 480 L 400.01953,-800 Z m 694.6289,618.26172 c -1.79616,1.62537 -3.61933,3.22064 -5.46875,4.78515 1.87656,-1.49842 3.67282,-3.08728 5.46875,-4.78515 z"
         transform="matrix(0.96,0,0,0.96,-76.800002,-192)" /><path
         d="m 599.34786,-430.21072 q 7.16771,0 12.01646,-4.84871 4.84875,-4.84873 4.84875,-12.01639 0,-7.16767 -4.84875,-12.01638 -4.84875,-4.84872 -12.01646,-4.84872 -7.16772,0 -12.01647,4.84872 -4.84875,4.84871 -4.84875,12.01638 0,7.16766 4.84875,12.01639 4.84875,4.84871 12.01647,4.84871 z m 0,-67.4604 q 7.16771,0 12.01646,-4.84871 4.84875,-4.84872 4.84875,-12.01639 v -67.46039 q 0,-7.16767 -4.84875,-12.01639 -4.84875,-4.84872 -12.01646,-4.84872 -7.16772,0 -12.01647,4.84872 -4.84875,4.84872 -4.84875,12.01639 v 67.46039 q 0,7.16767 4.84875,12.01639 4.84875,4.84871 12.01647,4.84871 z m 0,151.7859 q -34.99533,0 -65.77435,-13.28127 -30.77901,-13.28127 -53.54705,-36.04915 -22.76803,-22.76788 -36.0494,-53.54669 -13.28136,-30.7788 -13.28136,-65.77389 0,-34.99508 13.28136,-65.77388 13.28137,-30.77881 36.0494,-53.5467 22.76804,-22.76788 53.54705,-36.04915 30.77902,-13.28126 65.77435,-13.28126 34.99531,0 65.77433,13.28126 30.77902,13.28127 53.54705,36.04915 22.76804,22.76789 36.0494,53.5467 Q 768,-549.5313 768,-514.53622 q 0,34.99509 -13.28136,65.77389 -13.28136,30.77881 -36.0494,53.54669 -22.76803,22.76788 -53.54705,36.04915 -30.77902,13.28127 -65.77433,13.28127 z"
         id="path1-60"
         style="fill:#fca5a5;fill-opacity:1;stroke-width:0.421629" /></g></g></svg>
