<?xml version="1.0" encoding="UTF-8" standalone="no"?>
<svg
   height="12.800781"
   viewBox="0 -960 768 614.4375"
   width="16"
   fill="#f19e39"
   version="1.1"
   id="svg1"
   xml:space="preserve"
   xmlns="http://www.w3.org/2000/svg"
   xmlns:svg="http://www.w3.org/2000/svg"><defs
     id="defs1" /><path
     style="display:none;fill:#fbbf24;fill-opacity:1;stroke-width:0.92419"
     d="m 66.54151,-427.66787 c -17.867627,0 -33.424783,-6.62334 -46.67147,-19.87003 C 6.6233467,-460.78459 0,-476.34175 0,-494.20938 v -399.2491 c 0,-18.29891 6.6233467,-33.9639 19.87004,-46.99495 C 33.116727,-953.48448 48.673883,-960 66.54151,-960 h 199.62455 l 88.72203,88.72203 h 288.34657 c 18.29892,0 33.9639,6.51552 46.99494,19.54656 13.03105,13.03105 19.54657,28.69603 19.54657,46.99495 v 111.26634 c -89.95963,-48.73859 -172.63873,-37.35624 -231.49583,4.72322 -78.14459,55.8689 -114.29605,165.85031 -69.73982,261.07903 z"
     id="path5" /><path
     style="display:none;fill:#fbbf24;fill-opacity:1;stroke-width:0.92419"
     d="m 646.00722,-469.45039 c 12.93863,-13.06802 19.40794,-28.77921 19.40794,-47.13358 0,-18.35437 -6.53401,-34.00086 -19.60202,-46.93949 -13.06801,-12.93863 -28.7792,-19.40795 -47.13357,-19.40795 -18.35437,0 -34.00087,6.53401 -46.9395,19.60202 -12.93863,13.06802 -19.40794,28.77921 -19.40794,47.13358 0,18.35437 6.53401,34.00086 19.60202,46.93949 13.06801,12.93863 28.77921,19.40795 47.13358,19.40795 18.35437,0 34.00086,-6.53401 46.93949,-19.60202 z"
     id="path4" /><path
     style="display:none;fill:#fbbf24;fill-opacity:1;stroke-width:0.92419"
     d="m 569.29964,-338.94584 -12.01444,-51.75452 c -8.62575,-3.08063 -16.78941,-6.62335 -24.49098,-10.62816 -7.70156,-4.00481 -14.94103,-9.08784 -21.71841,-15.24909 l -50.83033,15.71119 -29.574,-50.83032 37.8917,-36.96752 c -1.84837,-8.31769 -2.77256,-17.32852 -2.77256,-27.03249 0,-9.70397 0.92419,-18.86883 2.77256,-27.49458 l -37.8917,-36.04332 29.574,-50.83033 49.90614,14.787 c 6.77738,-6.77737 14.17088,-12.3225 22.18051,-16.63537 8.00963,-4.31287 16.32732,-7.70156 24.95307,-10.16607 l 12.01444,-51.75451 h 59.14801 l 12.01445,51.75451 c 8.62575,3.08063 17.09747,6.62335 25.41516,10.62816 8.31769,4.00481 15.55716,9.39591 21.71841,16.17328 l 49.90614,-13.86281 29.57401,50.83033 -36.96752,35.11913 c 1.84838,8.31769 2.77257,17.32852 2.77257,27.03249 0,9.70397 -0.92419,18.86883 -2.77257,27.49458 l 37.8917,36.04332 -29.57401,50.83033 -50.83032,-14.787 c -6.77738,6.16125 -14.17088,11.24428 -22.18051,15.24909 -8.00963,4.00481 -16.32731,7.54753 -24.95306,10.62816 l -12.01445,51.75452 z"
     id="path1" /><g
     id="layer1"><g
       id="g7"
       style="fill:#fde68a;fill-opacity:1"><path
         id="path1-8"
         style="display:inline;fill:#fde68a;fill-opacity:1"
         d="m 159.98047,-800 c -22,0 -40.77864,7.86849 -56.44531,23.53516 C 87.868489,-760.79817 80,-742.01953 80,-720.01953 v 479.98047 c 0,22 7.868489,40.87629 23.53516,56.54296 15.66667,15.66667 34.44531,23.53516 56.44531,23.53516 h 402.47562 c -1.47453,-2.32687 -4.44845,-3.12982 -6.57954,-4.75138 -53.83134,-40.96085 -68.37008,-105.76488 -68.35702,-174.83846 -0.0131,-120.18631 97.39182,-217.63495 217.57812,-217.67578 68.94619,-0.0282 133.82843,32.61219 174.90235,87.98828 v -170.80078 c 0,-22 -7.86849,-40.77865 -23.53516,-56.44532 -15.66667,-15.66667 -34.44531,-23.53515 -56.44531,-23.53515 H 480 L 400.01953,-800 Z m 694.6289,618.26172 c -1.79616,1.62537 -3.61933,3.22064 -5.46875,4.78515 1.87656,-1.49842 3.67282,-3.08728 5.46875,-4.78515 z"
         transform="matrix(0.96,0,0,0.96,-76.8,-192)" /><path
         d="m 19.636558,11.859856 c 0,-0.23 -0.01,-0.45 -0.03,-0.68 l 1.86,-1.4100001 c 0.4,-0.3 0.51,-0.86 0.26,-1.3 l -1.87,-3.23 c -0.25,-0.44 -0.79,-0.62 -1.25,-0.42 l -2.15,0.91 c -0.37,-0.26 -0.76,-0.49 -1.17,-0.68 l -0.29,-2.31 c -0.06,-0.5 -0.49,-0.88 -0.99,-0.88 h -3.73 c -0.5100001,0 -0.9400001,0.38 -1.0000001,0.88 l -0.29,2.31 c -0.41,0.19 -0.8,0.42 -1.17,0.68 l -2.15,-0.91 c -0.46,-0.2 -1,-0.02 -1.25,0.42 l -1.87,3.24 c -0.25,0.44 -0.14,0.99 0.26,1.3 l 1.86,1.4100001 c -0.02,0.22 -0.03,0.44 -0.03,0.67 0,0.23 0.01,0.45 0.03,0.68 l -1.86,1.41 c -0.4,0.3 -0.51,0.86 -0.26,1.3 l 1.87,3.23 c 0.25,0.44 0.79,0.62 1.25,0.42 l 2.15,-0.91 c 0.37,0.26 0.76,0.49 1.17,0.68 l 0.29,2.31 c 0.06,0.5 0.49,0.88 0.9900001,0.88 h 3.73 c 0.5,0 0.93,-0.38 0.99,-0.88 l 0.29,-2.31 c 0.41,-0.19 0.8,-0.42 1.17,-0.68 l 2.15,0.91 c 0.46,0.2 1,0.02 1.25,-0.42 l 1.87,-3.23 c 0.25,-0.44 0.14,-0.99 -0.26,-1.3 l -1.86,-1.41 c 0.03,-0.23 0.04,-0.45 0.04,-0.68 z m -7.46,3.5 c -1.93,0 -3.5000001,-1.57 -3.5000001,-3.5 0,-1.9300001 1.5700001,-3.5000001 3.5000001,-3.5000001 1.93,0 3.5,1.57 3.5,3.5000001 0,1.93 -1.57,3.5 -3.5,3.5 z"
         id="path1-1"
         style="fill:#fde68a;fill-opacity:1"
         transform="matrix(17.325588,0,0,17.325588,389.26515,-724.29736)" /></g></g></svg>
