<?xml version="1.0" encoding="UTF-8" standalone="no"?>
<svg
   height="12.800781"
   viewBox="0 -960 768 614.4375"
   width="16"
   fill="#f19e39"
   version="1.1"
   id="svg1"
   xml:space="preserve"
   xmlns="http://www.w3.org/2000/svg"
   xmlns:svg="http://www.w3.org/2000/svg"><defs
     id="defs1" /><g
     id="g14"
     transform="translate(-1.1879127e-4)"
     style="fill:#a78bfa;fill-opacity:1"><path
       id="path13"
       style="display:inline;fill:#a78bfa;fill-opacity:1"
       d="m 159.98047,-800 c -22,0 -40.77864,7.86849 -56.44531,23.53516 C 87.868489,-760.79817 80,-742.01953 80,-720.01953 v 479.98047 c 0,22 7.868489,40.87629 23.53516,56.54296 15.66667,15.66667 34.44531,23.53516 56.44531,23.53516 h 402.47562 c -1.47453,-2.32687 -4.44845,-3.12982 -6.57954,-4.75138 -53.83134,-40.96085 -68.37008,-105.76488 -68.35702,-174.83846 -0.0131,-120.18631 97.39182,-217.63495 217.57812,-217.67578 68.94619,-0.0282 133.82843,32.61219 174.90235,87.98828 v -170.80078 c 0,-22 -7.86849,-40.77865 -23.53516,-56.44532 -15.66667,-15.66667 -34.44531,-23.53515 -56.44531,-23.53515 H 480 L 400.01953,-800 Z m 694.6289,618.26172 c -1.79616,1.62537 -3.61933,3.22064 -5.46875,4.78515 1.87656,-1.49842 3.67282,-3.08728 5.46875,-4.78515 z"
       transform="matrix(0.96,0,0,0.96,-76.800002,-192)" /><path
       d="m 443.08759,-591.3251 c 0,-6.36841 1.51973,-12.15783 4.5592,-17.36835 3.03946,-5.21051 7.30919,-9.40793 12.80918,-12.59212 l 121.57866,-70.34193 c 5.49998,-3.18419 11.28943,-4.7763 17.36837,-4.7763 6.07894,0 11.86839,1.59211 17.36837,4.7763 l 121.57867,70.34193 c 5.49998,3.18419 9.76971,7.38161 12.80917,12.59212 3.03947,5.21052 4.5592,10.99994 4.5592,17.36835 v 140.68388 c 0,6.36841 -1.51973,12.15783 -4.5592,17.36835 -3.03946,5.21051 -7.30919,9.40793 -12.80917,12.5921 l -121.57867,70.34193 c -5.49998,3.18417 -11.28943,4.77634 -17.36837,4.77634 -6.07894,0 -11.86839,-1.59217 -17.36837,-4.77634 l -121.57866,-70.34193 c -5.49999,-3.18417 -9.76972,-7.38159 -12.80918,-12.5921 -3.03947,-5.21052 -4.5592,-10.99994 -4.5592,-17.36835 z"
       id="path1-34"
       style="display:inline;fill:#a78bfa;fill-opacity:1;stroke-width:0.434209" /><path
       d="m 483.58759,-573.1001 c 0,-4.7184 1.12598,-9.00784 3.37795,-12.86835 2.25196,-3.86051 5.41544,-6.97042 9.49043,-9.32961 l 90.07866,-52.11693 c 4.07498,-2.3592 8.36443,-3.5388 12.86837,-3.5388 4.50394,0 8.79339,1.1796 12.86837,3.5388 l 90.07867,52.11693 c 4.07498,2.35919 7.23846,5.4691 9.49042,9.32961 2.25197,3.86051 3.37795,8.14995 3.37795,12.86835 v 104.23388 c 0,4.71841 -1.12598,9.00784 -3.37795,12.86836 -2.25196,3.86051 -5.41544,6.97041 -9.49042,9.32959 l -90.07867,52.11693 c -4.07498,2.35918 -8.36443,3.53883 -12.86837,3.53883 -4.50394,0 -8.79339,-1.17965 -12.86837,-3.53883 l -90.07866,-52.11693 c -4.07499,-2.35918 -7.23847,-5.46908 -9.49043,-9.32959 -2.25197,-3.86052 -3.37795,-8.14995 -3.37795,-12.86836 z"
       id="path22"
       style="display:inline;fill:#a7acfa;fill-opacity:1;stroke-width:0.321709" /><path
       d="m 595.68321,-545.66336 c -0.26498,-16.59223 33.97642,-25.37423 63.0404,-34.47462 26.95447,-8.43987 43.36193,-16.65565 50.49185,-9.39297 4.17787,4.25566 6.00295,11.71245 6.00295,16.43085 v 104.23388 c 0,4.71841 -1.12598,9.00784 -3.37795,12.86836 -2.25196,3.86051 -5.41544,6.97041 -9.49042,9.32959 l -90.07867,52.11693 c -5.94998,4.04668 -12.01993,3.27291 -16.52387,3.27291 -4.50394,0 0.8215,-98.92001 -0.0643,-154.38493 z"
       id="path23"
       style="display:inline;fill:#8f99fa;fill-opacity:1;stroke-width:0.321709" /></g></svg>
