<?xml version="1.0" encoding="UTF-8" standalone="no"?>
<svg
   height="12.800781"
   viewBox="0 -960 768.40997 614.4375"
   width="16.008541"
   fill="#f19e39"
   version="1.1"
   id="svg1"
   xml:space="preserve"
   xmlns="http://www.w3.org/2000/svg"
   xmlns:svg="http://www.w3.org/2000/svg"><defs
     id="defs1" /><g
     id="layer1"
     transform="translate(-1824.1234)"><g
       id="g9"
       transform="translate(1824.1235)"
       style="fill:#c4b5fd;fill-opacity:1"><path
         id="path8"
         style="display:inline;fill:#c4b5fd;fill-opacity:1"
         d="m 159.98047,-800 c -22,0 -40.77864,7.86849 -56.44531,23.53516 C 87.868489,-760.79817 80,-742.01953 80,-720.01953 v 479.98047 c 0,22 7.868489,40.87629 23.53516,56.54296 15.66667,15.66667 34.44531,23.53516 56.44531,23.53516 h 402.47562 c -1.47453,-2.32687 -4.33044,-3.29791 -6.57954,-4.75138 C 483.0767,-211.75886 489.72671,-270.51247 487.51953,-339.55078 479.69715,-584.22677 785.41755,-587.29633 880,-508.49609 v -131.54297 c 0,-22 -7.86849,-40.77865 -23.53516,-56.44532 -15.66667,-15.66667 -34.44531,-23.53515 -56.44531,-23.53515 H 480 L 400.01953,-800 Z m 694.6289,618.26172 c -1.79616,1.62537 -3.61933,3.22064 -5.46875,4.78515 1.87656,-1.49842 3.67282,-3.08728 5.46875,-4.78515 z"
         transform="matrix(0.96,0,0,0.96,-76.800002,-192)" /><path
         d="m 610.16873,-345.5625 q -66.37334,0 -112.30722,-21.40432 -45.93387,-21.4043 -45.93387,-52.24491 v -184.12309 q 0,-30.3803 46.37342,-52.01476 46.37345,-21.63447 111.86767,-21.63447 65.49423,0 111.86767,21.63447 46.37343,21.63446 46.37343,52.01476 v 184.12309 q 0,30.84061 -45.93388,52.24491 -45.93386,21.40432 -112.30722,21.40432 z m 0,-220.4874 q 39.12072,0 78.681,-11.73785 39.56027,-11.73784 44.39541,-25.08675 -4.83514,-13.34891 -44.17564,-25.31693 -39.34049,-11.96799 -78.90077,-11.96799 -39.99983,0 -78.4612,11.73784 -38.46138,11.73785 -44.6152,25.54708 6.15382,13.80922 44.6152,25.31692 38.46137,11.50768 78.4612,11.50768 z m 0,91.60123 q 18.46148,0 35.60426,-1.84123 17.14278,-1.84121 32.74711,-5.29355 15.60432,-3.45228 29.45042,-8.51569 13.84609,-5.06336 25.27462,-11.50768 v -55.23691 q -11.42853,6.4443 -25.27462,11.50769 -13.8461,5.06337 -29.45042,8.51569 -15.60433,3.4523 -32.74711,5.29354 -17.14278,1.84123 -35.60426,1.84123 -18.46145,0 -36.0438,-1.84123 -17.58236,-1.84124 -33.18667,-5.29354 -15.60434,-3.45232 -29.23066,-8.51569 -13.62631,-5.06339 -24.61527,-11.50769 v 55.23691 q 10.98896,6.44432 24.61527,11.50768 13.62632,5.06341 29.23066,8.51569 15.60431,3.45234 33.18667,5.29355 17.58235,1.84123 36.0438,1.84123 z m 0,92.06155 q 20.21969,0 41.09873,-3.22216 20.87904,-3.22216 38.46139,-8.5157 17.58233,-5.29352 29.45041,-11.968 11.86808,-6.67445 14.06588,-13.57907 v -45.11015 q -11.42853,6.4443 -25.27462,11.5077 -13.8461,5.06336 -29.45042,8.51569 -15.60433,3.45231 -32.74711,5.29353 -17.14278,1.84123 -35.60426,1.84123 -18.46145,0 -36.0438,-1.84123 -17.58236,-1.84122 -33.18667,-5.29353 -15.60434,-3.45233 -29.23066,-8.51569 -13.62631,-5.0634 -24.61527,-11.5077 v 45.57047 q 2.1978,6.9046 13.84608,13.34891 11.64832,6.44432 29.23066,11.73784 17.58236,5.29354 38.68116,8.5157 21.09882,3.22216 41.3185,3.22216 z"
         id="path1-7"
         style="display:inline;fill:#c4b5fd;fill-opacity:1;stroke-width:0.449814" /></g></g></svg>
