<?xml version="1.0" encoding="UTF-8" standalone="no"?>
<svg
   height="12.8"
   viewBox="0 -960 768 614.40001"
   width="16"
   fill="#f19e39"
   version="1.1"
   id="svg1"
   xml:space="preserve"
   xmlns="http://www.w3.org/2000/svg"
   xmlns:svg="http://www.w3.org/2000/svg"><defs
     id="defs1" /><g
     id="layer1"
     transform="translate(-13014.577,-0.0375)"><g
       id="g30"
       transform="translate(3512.0744)"><path
         d="m 9579.3023,-345.5625 q -31.68,0 -54.24,-22.56 -22.559,-22.56 -22.559,-54.24 v -460.8 q 0,-31.68 22.559,-54.24 22.561,-22.56 54.24,-22.56 h 198.721 q 15.36,0 29.28,5.76 13.92,5.76 24.48,16.32 l 54.72,54.72 h 307.1997 q 31.68,0 54.24,22.56 22.56,22.56 22.56,54.24 v 384 q 0,31.68 -22.56,54.24 -22.56,22.56 -54.24,22.56 z"
         id="path29"
         style="fill:#ffbfa3;fill-opacity:1;stroke-width:0.96" /><path
         d="m 10198.503,-527.07013 q 0,54.99661 -38.603,93.6 -38.603,38.60339 -93.6,38.60339 -54.997,0 -93.6,-38.60339 -38.603,-38.60339 -38.603,-93.6 v -195.66101 q 0,-39.66102 27.762,-67.42373 27.763,-27.76271 67.424,-27.76271 39.661,0 67.424,27.76271 27.762,27.76271 27.762,67.42373 v 185.08474 q 0,24.32543 -16.922,41.24746 -16.922,16.92203 -41.247,16.92203 -24.325,0 -41.247,-16.92203 -16.922,-16.92203 -16.922,-41.24746 v -174.50847 q 0,-8.98983 6.081,-15.07119 6.081,-6.08135 15.071,-6.08135 8.99,0 15.071,6.08135 6.082,6.08136 6.082,15.07119 v 174.50847 q 0,6.87458 4.495,11.36949 4.494,4.49492 11.369,4.49492 6.875,0 11.369,-4.49492 4.495,-4.49491 4.495,-11.36949 v -185.08474 q -0.528,-22.21017 -15.6,-37.54577 -15.071,-15.33559 -37.281,-15.33559 -22.21,0 -37.546,15.33559 -15.335,15.3356 -15.335,37.54577 v 195.66101 q -0.529,37.54577 25.912,63.72204 26.44,26.17627 63.986,26.17627 37.017,0 62.929,-26.17627 25.912,-26.17627 26.969,-63.72204 v -185.08474 q 0,-8.98983 6.082,-15.07119 6.081,-6.08135 15.071,-6.08135 8.99,0 15.071,6.08135 6.081,6.08136 6.081,15.07119 z"
         id="path1-77"
         style="fill:#ffffff;fill-opacity:1;stroke-width:0.528814" /></g></g></svg>
