<?xml version="1.0" encoding="UTF-8" standalone="no"?>
<svg
   height="12.800781"
   viewBox="0 -960 768 614.4375"
   width="16"
   fill="#f19e39"
   version="1.1"
   id="svg1"
   xml:space="preserve"
   xmlns="http://www.w3.org/2000/svg"
   xmlns:svg="http://www.w3.org/2000/svg"><defs
     id="defs1" /><g
     id="g12"
     style="fill:#3b82f6;fill-opacity:1"><path
       id="path10"
       style="display:inline;fill:#3b82f6;fill-opacity:1"
       d="m 159.98047,-800 c -22,0 -40.77864,7.86849 -56.44531,23.53516 C 87.868489,-760.79817 80,-742.01953 80,-720.01953 v 479.98047 c 0,22 7.868489,40.87629 23.53516,56.54296 15.66667,15.66667 34.44531,23.53516 56.44531,23.53516 H 506.33258 C 495.05942,-311.70264 457.75183,-469.23828 880,-469.23828 v -170.80078 c 0,-22 -7.86849,-40.77865 -23.53516,-56.44532 -15.66667,-15.66667 -34.44531,-23.53515 -56.44531,-23.53515 H 480 L 400.01953,-800 Z m 694.6289,618.26172 c -1.79616,1.62537 -3.61933,3.22064 -5.46875,4.78515 1.87656,-1.49842 3.67282,-3.08728 5.46875,-4.78515 z"
       transform="matrix(0.96,0,0,0.96,-76.800002,-192)" /><path
       d="m 492.45977,-477.57476 63.74438,63.74438 q 4.5238,4.5238 4.5238,11.51512 0,6.99131 -4.5238,11.51511 -4.5238,4.5238 -11.51511,4.5238 -6.99132,0 -11.51511,-4.5238 l -75.67075,-75.67075 q -2.46753,-2.46752 -3.49566,-5.3463 -1.02814,-2.87877 -1.02814,-6.16881 0,-3.29004 1.02814,-6.16881 1.02813,-2.87878 3.49566,-5.3463 l 75.67075,-75.67075 q 4.93504,-4.93505 11.72073,-4.93505 6.78569,0 11.72075,4.93505 4.93504,4.93505 4.93504,11.72074 0,6.78569 -4.93504,11.72075 z m 236.05983,-0.8225 -63.74437,-63.74438 q -4.5238,-4.5238 -4.5238,-11.51511 0,-6.99132 4.5238,-11.51512 4.52379,-4.52379 11.51511,-4.52379 6.99131,0 11.51511,4.52379 l 75.67076,75.67074 q 2.46752,2.46752 3.49566,5.3463 1.02813,2.87877 1.02813,6.16881 0,3.29004 -1.02813,6.16881 -1.02814,2.87878 -3.49566,5.34631 l -75.67076,75.67074 q -4.93505,4.93505 -11.51511,4.72943 -6.58007,-0.20563 -11.51511,-5.14068 -4.93506,-4.93505 -4.93506,-11.72074 0,-6.7857 4.93506,-11.72074 z"
       id="path1-3"
       style="fill:#3b82f6;fill-opacity:1;stroke:#3b82f6;stroke-width:18.5046;stroke-dasharray:none;stroke-opacity:1" /></g></svg>
