<?xml version="1.0" encoding="UTF-8" standalone="no"?>
<svg
   height="12.8"
   viewBox="0 -960 768 614.40001"
   width="16"
   fill="#f19e39"
   version="1.1"
   id="svg1"
   xml:space="preserve"
   xmlns="http://www.w3.org/2000/svg"
   xmlns:svg="http://www.w3.org/2000/svg"><defs
     id="defs1" /><g
     id="layer1"
     transform="translate(-20837.332,-0.0375)"><g
       id="g3"><path
         d="m 20914.133,-345.5625 q -31.68,0 -54.24,-22.56 -22.56,-22.56 -22.56,-54.24 v -460.8 q 0,-31.68 22.56,-54.24 22.56,-22.56 54.24,-22.56 h 198.72 q 15.36,0 29.28,5.76 13.92,5.76 24.48,16.32 l 54.72,54.72 h 307.2 q 31.68,0 54.24,22.56 22.56,22.56 22.56,54.24 v 384 q 0,31.68 -22.56,54.24 -22.56,22.56 -54.24,22.56 z"
         id="path27-48"
         style="fill:#15b5ff;fill-opacity:1;stroke-width:0.96" /><path
         d="m 21319.805,-594.06496 h 120.45 q 7.584,0 12.714,-5.13026 5.13,-5.13027 5.13,-12.71414 0,-7.58386 -5.13,-12.71412 -5.13,-5.13027 -12.714,-5.13027 h -120.45 q -7.583,0 -12.714,5.13027 -5.13,5.13026 -5.13,12.71412 0,7.58387 5.13,12.71414 5.131,5.13026 12.714,5.13026 z m 0,66.91647 h 120.45 q 7.584,0 12.714,-5.13026 5.13,-5.13027 5.13,-12.71413 0,-7.58387 -5.13,-12.71413 -5.13,-5.13027 -12.714,-5.13027 h -120.45 q -7.583,0 -12.714,5.13027 -5.13,5.13026 -5.13,12.71413 0,7.58386 5.13,12.71413 5.131,5.13026 12.714,5.13026 z m 0,66.91647 h 61.34 q 7.584,0 12.715,-5.13026 5.13,-5.13027 5.13,-12.71413 0,-7.58387 -5.13,-12.71413 -5.131,-5.13027 -12.715,-5.13027 h -61.34 q -7.583,0 -12.714,5.13027 -5.13,5.13026 -5.13,12.71413 0,7.58386 5.13,12.71413 5.131,5.13026 12.714,5.13026 z m -60.381,69.14703 q -16.573,0 -28.283,-11.79404 -11.71,-11.79402 -11.71,-28.35584 v -347.96568 q 0,-16.56182 11.794,-28.35584 11.794,-11.79404 28.356,-11.79404 h 157.253 q 7.807,0 15.335,2.78819 7.529,2.78819 13.105,8.9222 l 83.645,83.64559 q 6.134,5.57638 8.923,13.10447 2.788,7.5281 2.788,15.33503 v 264.32008 q 0,16.56182 -11.8,28.35584 -11.8,11.79404 -28.372,11.79404 z m 147.373,-314.50744 q 0,8.53186 5.771,14.30341 5.772,5.77154 14.304,5.77154 h 73.608 l -93.683,-93.68307 z"
         id="path1-55"
         style="fill:#ffffff;fill-opacity:1;stroke-width:0.557637" /></g></g></svg>
